<?xml version="1.0" encoding="UTF-8"?>
<svg width="960px" height="960px" viewBox="0 0 960 960" version="1.1" xmlns="http://www.w3.org/2000/svg" xmlns:xlink="http://www.w3.org/1999/xlink">
    <!-- Generator: Sketch 60.1 (88133) - https://sketch.com -->
    <title>switch</title>
    <desc>Created with Sketch.</desc>
    <g id="switch" stroke="none" stroke-width="1" fill="none" fill-rule="evenodd">
        <path d="M754,1 C765.045695,1 774,9.954305 774,21 L774,21 L774,939 C774,950.045695 765.045695,959 754,959 L754,959 L206,959 C194.954305,959 186,950.045695 186,939 L186,939 L186,21 C186,9.954305 194.954305,1 206,1 L206,1 Z M734,41 L226,41 L226,919 L734,919 L734,41 Z M504,629 C535.480231,629 561,654.519769 561,686 C561,717.480231 535.480231,743 504,743 L504,743 L453,743 C421.519769,743 396,717.480231 396,686 C396,654.519769 421.519769,629 453,629 L453,629 Z M504,649 L453,649 C432.565464,649 416,665.565464 416,686 C416,706.434536 432.565464,723 453,723 L453,723 L504,723 C524.434536,723 541,706.434536 541,686 C541,665.565464 524.434536,649 504,649 L504,649 Z M479,677 C483.970563,677 488,681.029437 488,686 C488,690.970563 483.970563,695 479,695 C474.029437,695 470,690.970563 470,686 C470,681.029437 474.029437,677 479,677 Z M504,492 C535.480231,492 561,517.519769 561,549 C561,580.480231 535.480231,606 504,606 L504,606 L453,606 C421.519769,606 396,580.480231 396,549 C396,517.519769 421.519769,492 453,492 L453,492 Z M504,512 L453,512 C432.565464,512 416,528.565464 416,549 C416,569.434536 432.565464,586 453,586 L453,586 L504,586 C524.434536,586 541,569.434536 541,549 C541,528.565464 524.434536,512 504,512 L504,512 Z M479,540 C483.970563,540 488,544.029437 488,549 C488,553.970563 483.970563,558 479,558 C474.029437,558 470,553.970563 470,549 C470,544.029437 474.029437,540 479,540 Z M504,355 C535.480231,355 561,380.519769 561,412 C561,443.480231 535.480231,469 504,469 L504,469 L453,469 C421.519769,469 396,443.480231 396,412 C396,380.519769 421.519769,355 453,355 L453,355 Z M504,375 L453,375 C432.565464,375 416,391.565464 416,412 C416,432.434536 432.565464,449 453,449 L453,449 L504,449 C524.434536,449 541,432.434536 541,412 C541,391.565464 524.434536,375 504,375 L504,375 Z M479,403 C483.970563,403 488,407.029437 488,412 C488,416.970563 483.970563,421 479,421 C474.029437,421 470,416.970563 470,412 C470,407.029437 474.029437,403 479,403 Z M504,218 C535.480231,218 561,243.519769 561,275 C561,306.480231 535.480231,332 504,332 L504,332 L453,332 C421.519769,332 396,306.480231 396,275 C396,243.519769 421.519769,218 453,218 L453,218 Z M504,238 L453,238 C432.565464,238 416,254.565464 416,275 C416,295.434536 432.565464,312 453,312 L453,312 L504,312 C524.434536,312 541,295.434536 541,275 C541,254.565464 524.434536,238 504,238 L504,238 Z M479,266 C483.970563,266 488,270.029437 488,275 C488,279.970563 483.970563,284 479,284 C474.029437,284 470,279.970563 470,275 C470,270.029437 474.029437,266 479,266 Z" id="Combined-Shape" fill="#000000"></path>
    </g>
</svg>