<?xml version="1.0" encoding="UTF-8" standalone="no"?>
<!-- Generator: Adobe Illustrator 19.0.0, SVG Export Plug-In . SVG Version: 6.00 Build 0)  -->

<svg
   xmlns:dc="http://purl.org/dc/elements/1.1/"
   xmlns:cc="http://creativecommons.org/ns#"
   xmlns:rdf="http://www.w3.org/1999/02/22-rdf-syntax-ns#"
   xmlns:svg="http://www.w3.org/2000/svg"
   xmlns="http://www.w3.org/2000/svg"
   xmlns:sodipodi="http://sodipodi.sourceforge.net/DTD/sodipodi-0.dtd"
   xmlns:inkscape="http://www.inkscape.org/namespaces/inkscape"
   version="1.1"
   id="Layer_1"
   x="0px"
   y="0px"
   viewBox="0 0 96 96"
   style="enable-background:new 0 0 96 96;"
   xml:space="preserve"
   sodipodi:docname="wifi_not_bad.svg"
   inkscape:version="0.92.4 (5da689c313, 2019-01-14)"><metadata
   id="metadata11"><rdf:RDF><cc:Work
       rdf:about=""><dc:format>image/svg+xml</dc:format><dc:type
         rdf:resource="http://purl.org/dc/dcmitype/StillImage" /><dc:title /></cc:Work></rdf:RDF></metadata><defs
   id="defs9">
	
</defs><sodipodi:namedview
   pagecolor="#ffffff"
   bordercolor="#666666"
   borderopacity="1"
   objecttolerance="10"
   gridtolerance="10"
   guidetolerance="10"
   inkscape:pageopacity="0"
   inkscape:pageshadow="2"
   inkscape:window-width="1920"
   inkscape:window-height="1017"
   id="namedview7"
   showgrid="false"
   inkscape:zoom="4.9166667"
   inkscape:cx="-20.215482"
   inkscape:cy="44.134991"
   inkscape:window-x="-8"
   inkscape:window-y="-8"
   inkscape:window-maximized="1"
   inkscape:current-layer="Layer_1" />
<style
   type="text/css"
   id="style2">
	.st0{fill:#333333;}
</style>
<path
   style="fill:#333333;stroke-width:1.69491231"
   inkscape:connector-curvature="0"
   d="m 47.736186,82.347453 c -0.64171,0 -1.925129,-1.253469 -4.171113,-3.760409 -2.245984,-2.50694 -3.208549,-3.939478 -3.208549,-4.655746 0,-1.074403 0.962565,-1.969739 2.887694,-2.686007 1.925129,-0.716269 3.368976,-1.074403 4.652395,-1.074403 1.283419,0 2.727266,0.358134 4.652395,1.074403 1.925129,0.716268 2.887694,1.611604 2.887694,2.686007 0,0.716268 -1.122992,2.148806 -3.208549,4.655746 -2.085556,2.50694 -3.850258,3.760409 -4.491967,3.760409 z M 59.92867,68.738351 c 0,0 -0.64171,-0.358134 -1.764702,-1.25347 -1.122992,-0.895336 -2.727266,-1.611604 -4.491968,-2.50694 -1.925129,-0.895336 -3.850258,-1.25347 -5.775387,-1.25347 -1.925129,0 -3.850258,0.358134 -5.775387,1.25347 -1.925129,0.895336 -3.368976,1.611604 -4.491968,2.50694 -1.122992,0.895336 -1.764701,1.25347 -1.764701,1.25347 -0.481283,0 -1.92513,-1.25347 -4.171113,-3.76041 -2.245984,-2.50694 -3.368976,-4.118544 -3.368976,-4.655746 0,-0.358134 0.160427,-0.895335 0.481282,-1.074403 2.406411,-2.50694 5.294105,-4.655745 8.823508,-6.088282 3.529403,-1.432537 6.737952,-2.148806 10.106928,-2.148806 3.368975,0 6.898379,0.716269 10.427782,2.148806 3.529403,1.432537 6.417097,3.581342 8.823508,6.088282 0.320855,0.358135 0.481282,0.716269 0.481282,1.074403 0,0.537202 -1.122992,2.148806 -3.368976,4.655746 -2.245983,2.50694 -3.68983,3.76041 -4.171112,3.76041 z M 72.121153,55.129248 c -0.320854,0 -0.641709,-0.179067 -0.962564,-0.358134 -4.010686,-3.581343 -7.860944,-6.088283 -11.390347,-7.699887 -3.529403,-1.611604 -7.540089,-2.50694 -12.032056,-2.50694 -2.566839,0 -5.133678,0.358134 -7.700517,1.074403 -2.566838,0.716268 -4.812822,1.611604 -6.737951,2.686007 -1.925129,1.074403 -3.529403,2.148806 -5.133678,3.044141 -1.443846,1.074403 -2.727266,1.969739 -3.529403,2.686007 -0.802137,0.716269 -1.283419,1.074403 -1.443847,1.074403 -0.481282,0 -1.925129,-1.25347 -4.171113,-3.76041 -2.245983,-2.50694 -3.368975,-4.118544 -3.368975,-4.655745 0,-0.358135 0.160427,-0.716269 0.481282,-1.074403 4.010685,-4.476679 8.823508,-7.878954 14.438468,-10.206827 5.614959,-2.50694 11.390346,-3.581343 17.005306,-3.581343 5.61496,0 11.390347,1.25347 17.005307,3.581343 5.614959,2.50694 10.427782,5.909215 14.438468,10.206827 0.320854,0.358134 0.481282,0.716268 0.481282,1.074403 0,0.537201 -1.122992,2.148805 -3.368976,4.655745 -2.085557,2.50694 -3.529403,3.76041 -4.010686,3.76041 z M 84.313637,41.520146 c -0.320854,0 -0.641709,-0.179068 -0.962564,-0.537202 C 78.056968,35.789997 72.442008,31.85052 66.666621,29.164513 60.891234,26.478506 54.634565,25.225036 47.736186,25.225036 c -6.898379,0 -13.155049,1.25347 -18.930436,3.939477 -5.775387,2.686007 -11.390347,6.625484 -16.684452,11.818431 -0.320854,0.358134 -0.641709,0.537202 -0.962564,0.537202 -0.481282,0 -1.9251292,-1.25347 -4.1711131,-3.76041 -2.2459839,-2.50694 -3.3689758,-4.118545 -3.3689758,-4.655746 0,-0.358134 0.1604274,-0.895336 0.4812823,-1.074403 5.6149597,-6.26735 12.1924836,-11.102163 20.0534276,-14.504438 7.700516,-3.402276 15.56146,-5.192947 23.743258,-5.192947 8.181798,0 15.882315,1.790671 23.743258,5.192947 7.700516,3.402275 14.438468,8.237088 20.053428,14.504438 0.320855,0.358134 0.481282,0.716269 0.481282,1.074403 0,0.537201 -1.122992,2.148806 -3.368976,4.655746 -2.566839,2.50694 -4.010685,3.76041 -4.491968,3.76041 z"
   class="st0"
   id="XMLID_8_" />
<path
   style="fill:#ffcc00;stroke-width:0.20338982"
   d="m 46.682265,81.608328 c -1.75588,-1.349649 -5.912863,-6.37066 -6.175522,-7.459104 -0.297237,-1.231733 1.287602,-2.422373 4.440586,-3.336072 2.164532,-0.627256 3.40856,-0.653022 5.51523,-0.114226 3.123123,0.79876 4.779586,1.89484 4.779586,3.162646 0,1.473457 -5.474842,7.755203 -7.237846,8.304588 -0.302883,0.09438 -0.681167,-0.06523 -1.322034,-0.557832 z"
   id="path3719"
   inkscape:connector-curvature="0" /><path
   style="fill:#00ed00;stroke-width:0.20338982;fill-opacity:1"
   d="m 34.977241,68.081872 c -1.482972,-1.080389 -5.523339,-5.687351 -6.292722,-7.175174 -0.170935,-0.330551 -0.256531,-0.77196 -0.190214,-0.980908 0.162903,-0.51326 2.585289,-2.775709 4.22381,-3.944933 2.82972,-2.019246 7.058398,-3.759173 10.902431,-4.485901 0.941321,-0.17796 2.763978,-0.321473 4.082803,-0.321473 6.57231,0 12.975535,2.448102 17.866722,6.830865 1.647084,1.475873 1.995501,2.109753 1.590318,2.893292 -0.753537,1.457177 -5.716898,6.991 -6.751147,7.527087 -0.36475,0.189061 -0.657702,0.05882 -2.033899,-0.904254 -1.983439,-1.38802 -5.235663,-2.99852 -6.997604,-3.46521 -1.75316,-0.464364 -5.140676,-0.467704 -6.915255,-0.0068 -1.667991,0.433204 -5.44752,2.290012 -6.915254,3.397328 -1.706207,1.287229 -1.683831,1.281691 -2.569989,0.636099 z"
   id="path3721"
   inkscape:connector-curvature="0" /><path
   style="fill:#00ed00;fill-opacity:1;stroke-width:0.20338982"
   d="m 47.004857,81.712707 c -1.352636,-0.830221 -6.061771,-6.41263 -6.338043,-7.513385 -0.298672,-1.190003 1.052059,-2.235867 4.161881,-3.222525 1.483201,-0.470577 1.915495,-0.52226 3.559322,-0.425539 3.033234,0.178473 6.170512,1.501565 6.620368,2.792023 0.15675,0.449652 0.115468,0.743975 -0.190032,1.354864 -1.193157,2.385871 -5.965483,7.394858 -7.040684,7.389832 -0.08945,-4.18e-4 -0.437219,-0.16929 -0.772812,-0.37527 z"
   id="path4528"
   inkscape:connector-curvature="0" /><path
   style="fill:#00ed00;fill-opacity:1;stroke-width:0.20338982"
   d="m 21.450422,53.665009 c -2.9719,-2.793868 -5.665904,-6.174738 -5.665904,-7.11049 0,-0.597296 2.982192,-3.627657 5.499479,-5.588309 5.707417,-4.445361 12.98282,-7.510824 20.417743,-8.602937 2.949293,-0.43322 8.465864,-0.435025 11.404812,-0.0037 8.124175,1.192232 15.238953,4.293372 21.559322,9.397128 2.307324,1.863186 4.779661,4.346171 4.779661,4.800248 0,0.806799 -4.994827,6.923539 -6.512467,7.975263 -1.009973,0.699914 -1.111658,0.661467 -3.453635,-1.305803 -5.248348,-4.408635 -10.877312,-7.272432 -16.284726,-8.285032 -2.874823,-0.538343 -8.377511,-0.494661 -11.022089,0.0875 -2.431434,0.535238 -5.173743,1.441241 -7.209898,2.382002 -2.465185,1.138986 -7.10195,4.010141 -9.508828,5.88801 -1.225912,0.956469 -2.29962,1.739034 -2.386018,1.739034 -0.0864,0 -0.814251,-0.617797 -1.617452,-1.372881 z"
   id="path4530"
   inkscape:connector-curvature="0" /><path
   style="fill:#b3b3b3;fill-opacity:1;stroke-width:0.20338982"
   d="M 9.9668493,40.600448 C 8.7337991,39.581514 5.8607959,36.415178 4.6808718,34.774774 4.1836608,34.083519 3.7845179,33.298558 3.7845179,33.01199 c 0,-0.937554 4.76303,-5.616906 8.8180191,-8.663104 6.62604,-4.977627 15.266573,-8.865419 23.742541,-10.68291 4.447458,-0.953663 7.298379,-1.19482 12.780362,-1.08108 3.777024,0.07837 5.594324,0.207487 7.438739,0.528529 11.940923,2.07846 22.385206,7.111303 31.087704,14.980398 2.452493,2.217628 4.403821,4.414927 4.403821,4.958935 0,1.351431 -6.589164,8.358014 -7.860084,8.358014 -0.134282,0 -1.18768,-0.873795 -2.340886,-1.941769 -6.981279,-6.465291 -14.920542,-11.06667 -22.242476,-12.891127 -4.294253,-1.070028 -6.609602,-1.328634 -11.895537,-1.328634 -5.160704,0 -7.620437,0.263598 -11.480721,1.230332 -7.866257,1.969954 -15.699342,6.495171 -22.894051,13.226024 -1.002477,0.937845 -1.951343,1.705174 -2.108591,1.705174 -0.157247,0 -0.727176,-0.364646 -1.2665087,-0.810324 z"
   id="path817"
   inkscape:connector-curvature="0" /></svg>