<?xml version="1.0" encoding="UTF-8" standalone="no"?>
<!-- Generator: Adobe Illustrator 19.0.0, SVG Export Plug-In . SVG Version: 6.00 Build 0)  -->

<svg
   xmlns:dc="http://purl.org/dc/elements/1.1/"
   xmlns:cc="http://creativecommons.org/ns#"
   xmlns:rdf="http://www.w3.org/1999/02/22-rdf-syntax-ns#"
   xmlns:svg="http://www.w3.org/2000/svg"
   xmlns="http://www.w3.org/2000/svg"
   xmlns:sodipodi="http://sodipodi.sourceforge.net/DTD/sodipodi-0.dtd"
   xmlns:inkscape="http://www.inkscape.org/namespaces/inkscape"
   version="1.1"
   id="Layer_1"
   x="0px"
   y="0px"
   viewBox="0 0 96 96"
   style="enable-background:new 0 0 96 96;"
   xml:space="preserve"
   sodipodi:docname="wifi_unknown.svg"
   inkscape:version="0.92.4 (5da689c313, 2019-01-14)"><metadata
   id="metadata11"><rdf:RDF><cc:Work
       rdf:about=""><dc:format>image/svg+xml</dc:format><dc:type
         rdf:resource="http://purl.org/dc/dcmitype/StillImage" /><dc:title /></cc:Work></rdf:RDF></metadata><defs
   id="defs9">
	
</defs><sodipodi:namedview
   pagecolor="#ffffff"
   bordercolor="#666666"
   borderopacity="1"
   objecttolerance="10"
   gridtolerance="10"
   guidetolerance="10"
   inkscape:pageopacity="0"
   inkscape:pageshadow="2"
   inkscape:window-width="1920"
   inkscape:window-height="1017"
   id="namedview7"
   showgrid="false"
   inkscape:zoom="4.9166667"
   inkscape:cx="-20.215482"
   inkscape:cy="44.134991"
   inkscape:window-x="-8"
   inkscape:window-y="-8"
   inkscape:window-maximized="1"
   inkscape:current-layer="Layer_1" />
<style
   type="text/css"
   id="style2">
	.st0{fill:#333333;}
</style>
<path
   style="fill:#333333;stroke-width:1.69491231"
   inkscape:connector-curvature="0"
   d="m 47.736186,82.347453 c -0.64171,0 -1.925129,-1.253469 -4.171113,-3.760409 -2.245984,-2.50694 -3.208549,-3.939478 -3.208549,-4.655746 0,-1.074403 0.962565,-1.969739 2.887694,-2.686007 1.925129,-0.716269 3.368976,-1.074403 4.652395,-1.074403 1.283419,0 2.727266,0.358134 4.652395,1.074403 1.925129,0.716268 2.887694,1.611604 2.887694,2.686007 0,0.716268 -1.122992,2.148806 -3.208549,4.655746 -2.085556,2.50694 -3.850258,3.760409 -4.491967,3.760409 z M 59.92867,68.738351 c 0,0 -0.64171,-0.358134 -1.764702,-1.25347 -1.122992,-0.895336 -2.727266,-1.611604 -4.491968,-2.50694 -1.925129,-0.895336 -3.850258,-1.25347 -5.775387,-1.25347 -1.925129,0 -3.850258,0.358134 -5.775387,1.25347 -1.925129,0.895336 -3.368976,1.611604 -4.491968,2.50694 -1.122992,0.895336 -1.764701,1.25347 -1.764701,1.25347 -0.481283,0 -1.92513,-1.25347 -4.171113,-3.76041 -2.245984,-2.50694 -3.368976,-4.118544 -3.368976,-4.655746 0,-0.358134 0.160427,-0.895335 0.481282,-1.074403 2.406411,-2.50694 5.294105,-4.655745 8.823508,-6.088282 3.529403,-1.432537 6.737952,-2.148806 10.106928,-2.148806 3.368975,0 6.898379,0.716269 10.427782,2.148806 3.529403,1.432537 6.417097,3.581342 8.823508,6.088282 0.320855,0.358135 0.481282,0.716269 0.481282,1.074403 0,0.537202 -1.122992,2.148806 -3.368976,4.655746 -2.245983,2.50694 -3.68983,3.76041 -4.171112,3.76041 z M 72.121153,55.129248 c -0.320854,0 -0.641709,-0.179067 -0.962564,-0.358134 -4.010686,-3.581343 -7.860944,-6.088283 -11.390347,-7.699887 -3.529403,-1.611604 -7.540089,-2.50694 -12.032056,-2.50694 -2.566839,0 -5.133678,0.358134 -7.700517,1.074403 -2.566838,0.716268 -4.812822,1.611604 -6.737951,2.686007 -1.925129,1.074403 -3.529403,2.148806 -5.133678,3.044141 -1.443846,1.074403 -2.727266,1.969739 -3.529403,2.686007 -0.802137,0.716269 -1.283419,1.074403 -1.443847,1.074403 -0.481282,0 -1.925129,-1.25347 -4.171113,-3.76041 -2.245983,-2.50694 -3.368975,-4.118544 -3.368975,-4.655745 0,-0.358135 0.160427,-0.716269 0.481282,-1.074403 4.010685,-4.476679 8.823508,-7.878954 14.438468,-10.206827 5.614959,-2.50694 11.390346,-3.581343 17.005306,-3.581343 5.61496,0 11.390347,1.25347 17.005307,3.581343 5.614959,2.50694 10.427782,5.909215 14.438468,10.206827 0.320854,0.358134 0.481282,0.716268 0.481282,1.074403 0,0.537201 -1.122992,2.148805 -3.368976,4.655745 -2.085557,2.50694 -3.529403,3.76041 -4.010686,3.76041 z M 84.313637,41.520146 c -0.320854,0 -0.641709,-0.179068 -0.962564,-0.537202 C 78.056968,35.789997 72.442008,31.85052 66.666621,29.164513 60.891234,26.478506 54.634565,25.225036 47.736186,25.225036 c -6.898379,0 -13.155049,1.25347 -18.930436,3.939477 -5.775387,2.686007 -11.390347,6.625484 -16.684452,11.818431 -0.320854,0.358134 -0.641709,0.537202 -0.962564,0.537202 -0.481282,0 -1.9251292,-1.25347 -4.1711131,-3.76041 -2.2459839,-2.50694 -3.3689758,-4.118545 -3.3689758,-4.655746 0,-0.358134 0.1604274,-0.895336 0.4812823,-1.074403 5.6149597,-6.26735 12.1924836,-11.102163 20.0534276,-14.504438 7.700516,-3.402276 15.56146,-5.192947 23.743258,-5.192947 8.181798,0 15.882315,1.790671 23.743258,5.192947 7.700516,3.402275 14.438468,8.237088 20.053428,14.504438 0.320855,0.358134 0.481282,0.716269 0.481282,1.074403 0,0.537201 -1.122992,2.148806 -3.368976,4.655746 -2.566839,2.50694 -4.010685,3.76041 -4.491968,3.76041 z"
   class="st0"
   id="XMLID_8_" />
<path
   style="fill:#b3b3b3;fill-opacity:1;stroke-width:0.20338982"
   d="M 9.9668496,40.600448 C 8.7337994,39.581514 5.8607962,36.415177 4.6808721,34.774773 4.1836611,34.083518 3.7845182,33.298558 3.7845182,33.01199 c 0,-0.937554 4.76303,-5.616907 8.8180198,-8.663104 6.626039,-4.977628 15.266572,-8.865419 23.74254,-10.682911 4.447458,-0.953663 7.29838,-1.19482 12.780362,-1.08108 3.777025,0.07837 5.594325,0.207487 7.438739,0.528529 11.940924,2.07846 22.385207,7.111303 31.087705,14.980399 2.452493,2.217628 4.403821,4.414926 4.403821,4.958934 0,1.351432 -6.589164,8.358014 -7.860084,8.358014 -0.134282,0 -1.18768,-0.873795 -2.340887,-1.941769 -6.981278,-6.46529 -14.920541,-11.06667 -22.242475,-12.891127 -4.294253,-1.070028 -6.609602,-1.328634 -11.895537,-1.328634 -5.160704,0 -7.620438,0.263598 -11.480722,1.230332 -7.866256,1.969954 -15.699342,6.495172 -22.89405,13.226025 -1.002478,0.937844 -1.951344,1.705173 -2.108591,1.705173 -0.157248,0 -0.727177,-0.364645 -1.2665094,-0.810323 z"
   id="path4534"
   inkscape:connector-curvature="0" /><path
   style="fill:#b3b3b3;fill-opacity:1;stroke-width:0.20338982"
   d="m 21.450422,53.665009 c -2.9719,-2.793868 -5.665904,-6.174738 -5.665904,-7.11049 0,-0.597296 2.982192,-3.627657 5.499479,-5.588309 5.707417,-4.445361 12.98282,-7.510824 20.417743,-8.602937 2.949293,-0.43322 8.465864,-0.435025 11.404812,-0.0037 8.124175,1.192232 15.238953,4.293372 21.559322,9.397128 2.307324,1.863186 4.779661,4.346171 4.779661,4.800248 0,0.806799 -4.994827,6.923539 -6.512467,7.975263 -1.009973,0.699914 -1.111658,0.661467 -3.453635,-1.305803 -5.248348,-4.408635 -10.877312,-7.272432 -16.284726,-8.285032 -2.874823,-0.538343 -8.377511,-0.494661 -11.022089,0.0875 -2.431434,0.535238 -5.173743,1.441241 -7.209898,2.382002 -2.465185,1.138986 -7.10195,4.010141 -9.508828,5.88801 -1.225912,0.956469 -2.29962,1.739034 -2.386018,1.739034 -0.0864,0 -0.814251,-0.617797 -1.617452,-1.372881 z"
   id="path4536"
   inkscape:connector-curvature="0" /><path
   style="fill:#b3b3b3;fill-opacity:1;stroke-width:0.20338982"
   d="m 34.977241,68.081872 c -1.482972,-1.080389 -5.523339,-5.687351 -6.292722,-7.175174 -0.170935,-0.330551 -0.256531,-0.77196 -0.190214,-0.980908 0.162903,-0.51326 2.585289,-2.775709 4.22381,-3.944933 2.82972,-2.019246 7.058398,-3.759173 10.902431,-4.485901 0.941321,-0.17796 2.763978,-0.321473 4.082803,-0.321473 6.57231,0 12.975535,2.448102 17.866722,6.830865 1.647084,1.475873 1.995501,2.109753 1.590318,2.893292 -0.753537,1.457177 -5.716898,6.991 -6.751147,7.527087 -0.36475,0.189061 -0.657702,0.05882 -2.033899,-0.904254 -1.983439,-1.38802 -5.235663,-2.99852 -6.997604,-3.46521 -1.75316,-0.464364 -5.140676,-0.467704 -6.915255,-0.0068 -1.667991,0.433204 -5.44752,2.290012 -6.915254,3.397328 -1.706207,1.287229 -1.683831,1.281691 -2.569989,0.636099 z"
   id="path4538"
   inkscape:connector-curvature="0" /><path
   style="fill:#b3b3b3;fill-opacity:1;stroke-width:0.20338982"
   d="m 46.682265,81.608328 c -1.75588,-1.349649 -5.912863,-6.37066 -6.175522,-7.459104 -0.297237,-1.231733 1.287602,-2.422373 4.440586,-3.336072 2.164532,-0.627256 3.40856,-0.653022 5.51523,-0.114226 3.123123,0.79876 4.779586,1.89484 4.779586,3.162646 0,1.473457 -5.474842,7.755203 -7.237846,8.304588 -0.302883,0.09438 -0.681167,-0.06523 -1.322034,-0.557832 z"
   id="path4540"
   inkscape:connector-curvature="0" /><path
   style="fill:#cccccc;fill-opacity:1;stroke-width:0.20338982"
   d="m 81.869219,39.343817 c -3.717978,-3.282395 -8.125273,-6.604339 -8.398983,-6.330629 -0.06952,0.06952 -0.126397,0.03014 -0.126397,-0.0875 0,-0.224161 -0.807276,-0.821209 -1.239671,-0.916842 -0.13852,-0.03064 -0.42299,-0.219211 -0.632154,-0.419054 -0.209166,-0.199843 -0.468488,-0.308848 -0.57627,-0.242234 -0.107785,0.06661 -0.195972,0.02605 -0.195972,-0.09014 0,-0.263611 -1.530395,-1.062013 -1.70363,-0.888778 -0.06978,0.06978 -0.126879,0.0147 -0.126879,-0.122413 0,-0.13711 -0.09153,-0.192726 -0.20339,-0.12359 -0.111864,0.06914 -0.203389,0.01352 -0.203389,-0.12359 0,-0.13711 -0.05666,-0.192633 -0.125909,-0.123383 -0.06925,0.06925 -0.259678,-0.0079 -0.423177,-0.171361 -0.163497,-0.163498 -0.381415,-0.245263 -0.484261,-0.181701 -0.102846,0.06356 -0.186992,0.01324 -0.186992,-0.111829 0,-0.125068 -0.09153,-0.170831 -0.20339,-0.101695 -0.111865,0.06914 -0.20339,0.03988 -0.20339,-0.06502 0,-0.1835 -0.7955,-0.570773 -1.418886,-0.690756 -0.165134,-0.03178 -0.42863,-0.177458 -0.585547,-0.323722 -0.156918,-0.146264 -0.410793,-0.21778 -0.564165,-0.158925 -0.153372,0.05885 -0.27886,0.03528 -0.27886,-0.05239 0,-0.237212 -2.588176,-1.106729 -2.836828,-0.953053 -0.11771,0.07275 -0.214019,0.04235 -0.214019,-0.06756 0,-0.35938 -6.145115,-1.625396 -8.175,-1.684212 -1.131759,-0.03279 -8.945396,-0.03302 -10.098574,-3.05e-4 -1.395187,0.03959 -4.804114,0.635108 -4.879391,0.852394 -0.03752,0.108304 -0.158581,0.14107 -0.269023,0.07281 -0.249139,-0.15397 -3.01869,0.54749 -3.01869,0.764568 0,0.08679 -0.137288,0.105118 -0.305085,0.04073 -0.167796,-0.06439 -0.305084,-0.01035 -0.305084,0.120082 0,0.130434 -0.07642,0.189921 -0.169831,0.132193 -0.236239,-0.146005 -1.660678,0.311912 -1.660678,0.533862 0,0.0997 -0.0789,0.132506 -0.175328,0.07291 -0.232692,-0.143811 -1.85857,0.501248 -1.85857,0.737377 0,0.101498 -0.08391,0.132682 -0.186468,0.0693 -0.290089,-0.179285 -5.162243,2.347403 -7.608381,3.945689 -2.951845,1.928711 -5.015251,3.517505 -8.130383,6.260288 -1.431759,1.260621 -2.722264,2.292039 -2.867789,2.292039 -0.992898,0 -6.529602,-5.958065 -7.2163002,-7.765485 C 3.7572253,32.770044 3.9671497,32.464466 6.4097355,29.952324 15.006126,21.111137 27.566236,14.86736 40.434643,13.038148 c 2.518019,-0.35793 11.207125,-0.412169 14.1545,-0.08835 8.501075,0.933973 18.23328,4.591924 25.995832,9.770802 5.291746,3.530452 11.267339,9.067703 11.267339,10.440821 0,0.252933 -0.473854,1.091324 -1.053006,1.863091 -1.227885,1.636251 -5.086713,5.516907 -5.987959,6.021832 l -0.620138,0.347432 z"
   id="path817"
   inkscape:connector-curvature="0" /><path
   style="fill:#cccccc;fill-opacity:1;stroke-width:0.20338982"
   d="M 20.536193,52.546365 C 18.118179,50.096773 16.80399,48.510052 16.179829,47.286597 l -0.38901,-0.762523 0.775901,-0.981589 c 2.177053,-2.754179 7.182119,-6.573224 11.395009,-8.694801 14.936982,-7.522144 31.982988,-6.015279 45.38211,4.011774 2.551524,1.909398 5.898305,5.155876 5.898305,5.721533 0,1.126593 -6.159449,8.253977 -7.13222,8.253023 -0.311026,-2.03e-4 -1.192037,-0.561915 -2.371275,-1.511593 -3.365656,-2.710475 -7.629812,-5.522871 -8.013881,-5.285502 -0.09765,0.06035 -0.177539,0.0074 -0.177539,-0.117673 0,-0.125068 -0.09153,-0.170831 -0.203389,-0.101695 -0.111865,0.06914 -0.20339,0.02337 -0.20339,-0.101695 0,-0.125068 -0.09153,-0.17083 -0.20339,-0.101694 -0.111865,0.06914 -0.20339,0.02337 -0.20339,-0.101695 0,-0.125069 -0.09152,-0.170831 -0.20339,-0.101695 -0.111864,0.06914 -0.20339,0.02337 -0.20339,-0.101695 0,-0.125068 -0.09152,-0.170831 -0.203389,-0.101695 -0.111865,0.06914 -0.20339,0.03773 -0.20339,-0.06979 0,-0.221428 -1.218637,-0.698489 -1.223453,-0.478947 -0.0016,0.07808 -0.0704,0.03622 -0.152646,-0.09302 -0.194539,-0.305711 -2.653914,-1.134411 -2.905395,-0.978988 -0.106194,0.06563 -0.193083,0.03491 -0.193083,-0.06827 0,-0.242775 -2.333033,-0.7405 -2.62505,-0.560023 -0.122325,0.0756 -0.222407,0.03353 -0.222407,-0.09349 0,-0.138877 -0.304062,-0.213905 -0.762712,-0.1882 -0.419492,0.02351 -0.916169,-0.02247 -1.103727,-0.102178 -0.187558,-0.07971 -1.606202,-0.09844 -3.152543,-0.04162 -1.54634,0.05682 -3.154747,0.106091 -3.574238,0.109492 -0.419492,0.0034 -0.763272,0.07854 -0.763953,0.166965 -6.1e-4,0.08843 -0.423264,0.17272 -0.939069,0.187311 -0.515805,0.01459 -0.995756,0.106116 -1.066556,0.20339 -0.0708,0.09727 -0.402425,0.197104 -0.736942,0.221846 -0.33452,0.02474 -0.639794,0.139719 -0.678389,0.255504 -0.03859,0.115786 -0.158664,0.155829 -0.266821,0.08899 -0.248241,-0.153422 -2.819457,0.742278 -2.819457,0.982176 0,0.09778 -0.08467,0.125453 -0.188148,0.0615 -0.234614,-0.144999 -1.235581,0.295467 -1.235581,0.543705 0,0.100511 -0.08839,0.128121 -0.196414,0.06136 -0.2617,-0.16174 -1.837484,0.652079 -1.837484,0.948975 0,0.128235 -0.05737,0.175788 -0.127481,0.105673 -0.154705,-0.154705 -1.296248,0.409951 -1.296248,0.641179 0,0.09035 -0.114406,0.166618 -0.254237,0.169488 -0.375014,0.0077 -2.79661,1.501792 -2.79661,1.725471 0,0.105392 -0.07312,0.14643 -0.162493,0.0912 -0.08937,-0.05523 -1.347846,0.762715 -2.79661,1.817664 -1.448765,1.054951 -2.727136,1.918469 -2.840825,1.918933 -0.113689,4.06e-4 -1.223095,-1.028822 -2.465346,-2.287296 z"
   id="path819"
   inkscape:connector-curvature="0" /><path
   style="fill:#cccccc;fill-opacity:1;stroke-width:0.20338982"
   d="m 33.988794,67.012293 c -2.699177,-2.563954 -5.390717,-5.966151 -5.390717,-6.814047 0,-0.515794 2.700582,-3.142358 4.455443,-4.333327 2.597988,-1.763173 6.806432,-3.49128 10.194086,-4.185984 2.255984,-0.462632 6.363708,-0.469492 8.943691,-0.01494 3.981897,0.701554 7.943774,2.373681 11.229614,4.739504 1.873465,1.348905 3.821234,3.325051 3.821234,3.876906 0,0.499442 -0.852208,1.684751 -2.957439,4.113412 -1.806065,2.083535 -3.817224,4.067797 -4.122934,4.067797 -0.104208,0 -0.894366,-0.460161 -1.755905,-1.022579 -3.140768,-2.050316 -7.280629,-3.84955 -8.265087,-3.592109 -0.214367,0.05606 -0.44101,0.01899 -0.503656,-0.08237 -0.142994,-0.231366 -3.282639,-0.244949 -3.424868,-0.01482 -0.05761,0.09321 -0.38335,0.128588 -0.723868,0.07861 -0.389551,-0.05717 -0.619125,-0.0024 -0.619125,0.14761 0,0.131163 -0.0954,0.179515 -0.212005,0.107451 -0.256743,-0.158676 -2.228673,0.522064 -2.228673,0.769371 0,0.09637 -0.09152,0.118649 -0.203389,0.04951 -0.111865,-0.06914 -0.20339,-0.01352 -0.20339,0.12359 0,0.13711 -0.05691,0.192381 -0.126467,0.122825 -0.118806,-0.118807 -2.093644,0.778447 -2.314211,1.051445 -0.05593,0.06923 -0.238983,0.156345 -0.40678,0.193593 -0.167796,0.03725 -0.965529,0.517756 -1.772739,1.067796 -0.80721,0.55004 -1.562019,1.000073 -1.677353,1.000073 -0.115334,0 -0.896292,-0.652197 -1.735462,-1.449326 z"
   id="path821"
   inkscape:connector-curvature="0" /><path
   style="fill:#e6e6e6;fill-opacity:1;stroke-width:0.20338982"
   d="m 47.004857,81.709346 c -1.716375,-1.06293 -6.40678,-6.812326 -6.40678,-7.85329 0,-1.072051 1.493578,-2.062265 4.477791,-2.968692 2.641427,-0.802308 6.564365,-0.214941 8.903623,1.333107 1.108407,0.733509 1.351717,1.452152 0.838861,2.477674 -1.193157,2.385871 -5.965483,7.394859 -7.040683,7.389832 -0.08945,-4.18e-4 -0.437219,-0.170802 -0.772812,-0.378631 z"
   id="path823"
   inkscape:connector-curvature="0" /><path
   style="fill:#e6e6e6;fill-opacity:1;stroke-width:0.20338982"
   d="m 33.625109,66.580263 c -2.02128,-1.981505 -4.254773,-4.680192 -4.773225,-5.767396 -0.294499,-0.617572 -0.28374,-0.678128 0.243233,-1.369025 1.327655,-1.740645 4.74316,-4.260496 7.377518,-5.442898 4.08014,-1.831324 7.449921,-2.624071 11.154316,-2.624071 4.967011,0 9.18794,1.141809 13.645074,3.691145 1.965091,1.123969 4.679568,3.313907 5.43014,4.380834 0.558938,0.794521 0.567626,0.843912 0.254864,1.448726 -0.616538,1.192252 -4.886185,6.099432 -6.137299,7.053703 l -0.707471,0.539613 -1.774039,-1.112032 c -2.249705,-1.410195 -5.088323,-2.831398 -5.342048,-2.674588 -0.107087,0.06619 -0.194705,0.02596 -0.194705,-0.08938 0,-0.286338 -2.158955,-0.89364 -2.765018,-0.777783 -0.26907,0.05144 -0.48922,0.01469 -0.48922,-0.08167 0,-0.09635 -0.732203,-0.175186 -1.627118,-0.175186 -0.894915,0 -1.627119,0.07883 -1.627119,0.175186 0,0.09635 -0.225267,0.132122 -0.500594,0.07949 -0.603446,-0.115356 -3.220758,0.648275 -3.632227,1.059743 -0.161331,0.161331 -0.349987,0.236671 -0.419237,0.167421 -0.06925,-0.06925 -0.125908,-0.01373 -0.125908,0.123384 0,0.13711 -0.09152,0.192726 -0.20339,0.12359 -0.111864,-0.06914 -0.20339,-0.02337 -0.20339,0.101695 0,0.125068 -0.09153,0.170831 -0.203389,0.101695 -0.111865,-0.06914 -0.20339,-0.02337 -0.20339,0.101694 0,0.125069 -0.09153,0.170831 -0.20339,0.101695 -0.111864,-0.06914 -0.20339,-0.02337 -0.20339,0.101695 0,0.125069 -0.09152,0.170831 -0.20339,0.101695 -0.111864,-0.06914 -0.20339,-0.02337 -0.20339,0.101695 0,0.125068 -0.08,0.177955 -0.177776,0.117525 -0.09778,-0.06043 -1.050801,0.437559 -2.117833,1.106641 -1.067031,0.669082 -1.98686,1.216512 -2.044063,1.216512 -0.0572,0 -0.96761,-0.84661 -2.023126,-1.881356 z"
   id="path825"
   inkscape:connector-curvature="0" /><path
   style="fill:#e6e6e6;fill-opacity:1;stroke-width:0.20338982"
   d="m 20.334638,52.277423 c -1.394788,-1.430661 -2.988669,-3.27803 -3.541958,-4.105267 -1.210428,-1.80974 -1.24769,-1.68303 1.211218,-4.11876 3.406772,-3.374661 8.174508,-6.534649 12.760422,-8.457429 14.516999,-6.086681 30.544299,-3.982543 43.002155,5.645522 2.201561,1.701479 5.475669,4.876067 5.475669,5.309231 0,0.815857 -5.519717,7.442373 -6.745956,8.098637 -0.499885,0.267531 -1.066731,-0.05613 -3.876474,-2.213388 -1.149189,-0.882322 -2.777807,-2.065136 -3.619151,-2.628476 -1.677883,-1.123463 -5.671397,-3.195607 -5.837866,-3.029138 -0.05751,0.05752 -0.242766,-0.03362 -0.411669,-0.202525 -0.168903,-0.168903 -0.432584,-0.258942 -0.585956,-0.200088 -0.153372,0.05885 -0.27886,0.02545 -0.27886,-0.07422 0,-0.244596 -1.362545,-0.68138 -1.623142,-0.520322 -0.114051,0.07049 -0.207366,0.04109 -0.207366,-0.06533 0,-0.288616 -2.778724,-0.92 -4.117468,-0.935575 -0.642576,-0.0075 -1.168847,-0.09597 -1.169492,-0.196662 -0.0018,-0.28364 -7.027167,0.0247 -8.645243,0.379435 -2.198022,0.48188 -5.389831,1.520442 -5.389831,1.753762 0,0.11521 -0.08434,0.157346 -0.187428,0.09364 -0.232985,-0.143992 -3.270199,1.221361 -3.270199,1.470089 0,0.09959 -0.120441,0.181063 -0.267646,0.181063 -0.366006,0 -3.985609,2.15523 -4.608936,2.744312 -0.277036,0.261815 -0.53451,0.444916 -0.572164,0.406891 -0.03766,-0.03803 -1.046582,0.611597 -2.242062,1.443608 -1.195479,0.832009 -2.295328,1.582369 -2.444109,1.667467 -0.184887,0.105751 -1.073216,-0.668626 -2.806488,-2.446474 z"
   id="path827"
   inkscape:connector-curvature="0" /><path
   style="fill:#e6e6e6;fill-opacity:1;stroke-width:0.20338982"
   d="m 82.590808,39.946587 c -3.846751,-3.409436 -9.03225,-7.381371 -9.049764,-6.931843 -0.0034,0.08731 -0.09224,0.01149 -0.19742,-0.168467 -0.193943,-0.331837 -3.50749,-2.330339 -4.067581,-2.453283 -0.167797,-0.03683 -0.350848,-0.123951 -0.40678,-0.193596 -0.198468,-0.247127 -3.094249,-1.626581 -3.197599,-1.52323 -0.05779,0.05778 -0.228136,-0.01801 -0.378559,-0.168431 -0.379743,-0.379743 -3.753895,-1.578087 -4.085307,-1.450912 -0.148906,0.05714 -0.270738,0.02648 -0.270738,-0.06814 0,-0.411847 -6.246305,-1.648104 -8.370319,-1.656638 -0.709884,-0.0029 -2.84663,-0.01615 -4.748325,-0.02956 -4.725177,-0.03331 -7.377502,0.142286 -9.661017,0.639591 -2.341904,0.51002 -4.881303,1.245374 -4.8815,1.413575 -7.8e-5,0.0676 -0.248962,0.137362 -0.553074,0.155022 -0.304115,0.01766 -0.586442,0.132636 -0.627399,0.255504 -0.04096,0.122868 -0.152139,0.175391 -0.247076,0.116717 -0.234968,-0.145219 -1.826544,0.506908 -1.826544,0.748402 0,0.10632 -0.09153,0.136744 -0.20339,0.06761 -0.111864,-0.06914 -0.20339,-0.02337 -0.20339,0.101695 0,0.125069 -0.09325,0.169763 -0.207232,0.09932 -0.281939,-0.174247 -4.873185,2.24499 -7.38951,3.893707 -2.632934,1.725122 -4.581225,3.213051 -7.563672,5.776452 -3.275278,2.815086 -3.199205,2.770995 -3.908934,2.265622 -0.316157,-0.225124 -1.5322271,-1.40054 -2.7023772,-2.612038 -2.1800759,-2.25711 -3.8553931,-4.501283 -3.8553931,-5.164495 0,-0.798277 3.6619517,-4.560225 7.2203393,-7.417504 1.902174,-1.527389 6.055743,-4.281409 8.440678,-5.596582 5.657316,-3.119731 12.350507,-5.464142 19.220338,-6.732271 2.173926,-0.401294 3.140899,-0.452053 8.847458,-0.464423 7.110824,-0.01542 8.480548,0.126433 13.627119,1.411222 10.547127,2.632983 20.464004,8.167569 27.872637,15.555654 1.179104,1.175833 2.266345,2.437056 2.416088,2.802718 0.259447,0.633534 0.235924,0.719725 -0.499562,1.830508 -0.862834,1.303112 -5.441184,6.062298 -6.341625,6.592104 l -0.580723,0.341689 z"
   id="path829"
   inkscape:connector-curvature="0" /></svg>