<?xml version="1.0" encoding="UTF-8"?>
<svg width="960px" height="960px" viewBox="0 0 960 960" version="1.1" xmlns="http://www.w3.org/2000/svg" xmlns:xlink="http://www.w3.org/1999/xlink">
    <!-- Generator: Sketch 60.1 (88133) - https://sketch.com -->
    <title>tile</title>
    <desc>Created with Sketch.</desc>
    <g id="tile" stroke="none" stroke-width="1" fill="none" fill-rule="evenodd" stroke-linejoin="round">
        <rect id="Rectangle" stroke="#000000" stroke-width="20" transform="translate(176.500000, 175.000000) rotate(90.000000) translate(-176.500000, -175.000000) " x="23.5" y="22.5" width="306" height="305"></rect>
        <rect id="Rectangle" stroke="#000000" stroke-width="20" transform="translate(173.000000, 480.000000) rotate(90.000000) translate(-173.000000, -480.000000) " x="20" y="331" width="306" height="298"></rect>
        <rect id="Rectangle" stroke="#000000" stroke-width="20" transform="translate(480.500000, 480.000000) rotate(90.000000) translate(-480.500000, -480.000000) " x="327.5" y="327.5" width="306" height="305"></rect>
        <rect id="Rectangle" stroke="#000000" stroke-width="20" transform="translate(480.500000, 785.000000) rotate(90.000000) translate(-480.500000, -785.000000) " x="327.5" y="632.5" width="306" height="305"></rect>
        <rect id="Rectangle" stroke="#000000" stroke-width="20" transform="translate(784.500000, 785.000000) rotate(90.000000) translate(-784.500000, -785.000000) " x="631.5" y="632.5" width="306" height="305"></rect>
        <path d="M936.5,937.5 L328.5,937.5 L328.5,632.5 L24.5,632.5 L24.5,22.5 L328.5,22.5 L328.5,327.5 L632.5,327.5 L632.5,632.5 L936.5,632.5 L936.5,937.5 Z" id="Combined-Shape" stroke="#000000" stroke-width="40"></path>
    </g>
</svg>