<?xml version="1.0" encoding="utf-8"?>
<!-- Generator: Adobe Illustrator 16.0.0, SVG Export Plug-In . SVG Version: 6.00 Build 0)  -->
<!DOCTYPE svg PUBLIC "-//W3C//DTD SVG 1.0//EN" "http://www.w3.org/TR/2001/REC-SVG-20010904/DTD/svg10.dtd">
<svg version="1.0" id="Layer_1" xmlns="http://www.w3.org/2000/svg" xmlns:xlink="http://www.w3.org/1999/xlink" x="0px" y="0px"
	 width="100px" height="100px" viewBox="0 0 100 100" enable-background="new 0 0 100 100" xml:space="preserve">
<path d="M64.167,10c-4.138,0-7.5,3.363-7.5,7.5c0,4.141,3.362,7.5,7.5,7.5c4.137,0,7.5-3.359,7.5-7.5
	C71.667,13.363,68.304,10,64.167,10z M64.167,20c-1.381,0-2.5-1.119-2.5-2.5s1.119-2.5,2.5-2.5c1.38,0,2.5,1.119,2.5,2.5
	S65.547,20,64.167,20z"/>
<path d="M82.5,28.333c-4.138,0-7.5,3.363-7.5,7.5c0,4.138,3.362,7.5,7.5,7.5s7.5-3.362,7.5-7.5C90,31.696,86.638,28.333,82.5,28.333
	z M82.5,38.333c-1.38,0-2.5-1.119-2.5-2.5c0-1.38,1.12-2.5,2.5-2.5s2.5,1.12,2.5,2.5C85,37.214,83.88,38.333,82.5,38.333z"/>
<path d="M50,10c-22.09,0-40,17.91-40,40s17.91,40,40,40s40-17.91,40-40H50V10z"/>
<rect x="52.263" y="24.167" transform="matrix(-0.7071 0.7071 -0.7071 -0.7071 144.0442 -6.332)" width="42.141" height="4.999"/>
</svg>
