<?xml version="1.0" encoding="utf-8"?>
<!-- Generator: Adobe Illustrator 16.0.0, SVG Export Plug-In . SVG Version: 6.00 Build 0)  -->
<!DOCTYPE svg PUBLIC "-//W3C//DTD SVG 1.0//EN" "http://www.w3.org/TR/2001/REC-SVG-20010904/DTD/svg10.dtd">
<svg version="1.0" id="Layer_1" xmlns="http://www.w3.org/2000/svg" xmlns:xlink="http://www.w3.org/1999/xlink" x="0px" y="0px"
	 width="100px" height="100px" viewBox="0 0 100 100" enable-background="new 0 0 100 100" xml:space="preserve">
<path d="M50,83.333c-9.304,0-17.669-3.854-23.714-10L35,73.327v-6.66H18.333C16.494,66.667,15,68.157,15,70v16.667h6.667v-8.559
	C28.906,85.42,38.894,90,50,90c22.09,0,40-17.91,40-40h-6.667C83.333,68.408,68.408,83.333,50,83.333z"/>
<path d="M50,16.667c9.304,0,17.669,3.854,23.718,10L65,26.673v6.66h16.667C83.503,33.333,85,31.843,85,30V13.333h-6.667v8.559
	C71.094,14.58,61.106,10,50,10c-22.09,0-40,17.91-40,40h6.667C16.667,31.592,31.592,16.667,50,16.667z"/>
<path d="M40,74.71c3.089,1.254,6.458,1.957,10,1.957c14.727,0,26.667-11.94,26.667-26.667c0-4.189-0.993-8.138-2.715-11.667H60
	V25.29c-3.089-1.254-6.462-1.957-10-1.957c-14.729,0-26.667,11.938-26.667,26.667c0,4.189,0.993,8.138,2.715,11.667H40V74.71z
	 M33.333,53.333C31.491,53.333,30,51.839,30,50c0-1.843,1.491-3.333,3.333-3.333c1.843,0,3.334,1.49,3.334,3.333
	C36.667,51.839,35.176,53.333,33.333,53.333z M46.667,30h6.666v16.667H70v6.666H50c-1.843,0-3.333-1.49-3.333-3.333V30z M50,63.333
	c1.843,0,3.333,1.491,3.333,3.334C53.333,68.509,51.843,70,50,70s-3.333-1.491-3.333-3.333C46.667,64.824,48.157,63.333,50,63.333z"
	/>
</svg>
