<?xml version="1.0" encoding="UTF-8"?>
<svg width="960px" height="960px" viewBox="0 0 960 960" version="1.1" xmlns="http://www.w3.org/2000/svg" xmlns:xlink="http://www.w3.org/1999/xlink">
    <!-- Generator: Sketch 60.1 (88133) - https://sketch.com -->
    <title>classic</title>
    <desc>Created with Sketch.</desc>
    <g id="classic" stroke="none" stroke-width="1" fill="none" fill-rule="evenodd">
        <path d="M688.190578,3 C714.03964,3 735.142325,23.5316771 735.98081,49.2464121 L736,50.0272172 L736,146.627882 C736,157.073502 732.053107,166.607509 725.562502,173.808328 L725.199305,174.205964 L725.033,174.382 L725.126452,174.491051 C725.760313,175.247923 726.36963,176.033262 726.953461,176.846435 L727.386542,177.461524 L727.689985,177.907231 C733.145539,186.034191 735.704218,195.956467 735.985155,206.949629 L736,207.652767 L736,464.716335 C736,469.353489 734.958749,474.995472 732.90963,482.740101 L732.548486,484.088554 L732.187643,485.407052 C731.696154,487.185736 730.961106,488.886978 730.004068,490.462677 L729.710319,490.931572 L623.002,656.138 L623.002481,704.542561 C623.002481,708.03297 622.089124,711.456893 620.36082,714.476759 L620.1201,714.886023 L619.869332,715.290087 L617.705257,718.686279 L614.982396,722.929274 L612.559001,726.674337 C600.237554,745.627172 593.071479,755.18994 587.383328,759.303984 C586.735408,759.772602 586.109437,760.187671 585.493308,760.557841 C581.045117,775.420223 578.750213,793.014156 578.66411,813.335231 L578.661593,814.526279 L578.661593,871.509607 C578.661593,873.561316 578.030504,875.563372 576.853932,877.244202 C542.794611,925.900733 512.842819,953.052472 485.615514,958.33583 C482.833264,958.875715 478.650517,959.289474 474.574468,959.289474 C471.234365,959.289474 466.667347,958.894888 464.493168,958.513202 C437.000593,953.686772 406.74583,926.46003 372.295004,877.244202 C371.187642,875.662244 370.563476,873.79574 370.493877,871.871102 L370.487343,871.509607 L370.487343,814.526279 C370.487343,792.969563 368.026354,774.4498 363.169583,758.971024 L362.868498,758.737961 C356.809966,753.956884 348.93892,743.044789 335.145554,721.574789 L334.257806,720.191172 L331.127433,715.28501 C329.168493,712.208664 328.089666,708.657892 328.003165,705.017827 L327.997519,704.542561 L327.997,656.138 L221.289681,490.931572 C220.399721,489.553718 219.683399,488.072791 219.155928,486.522549 L218.98712,486.00328 L218.832426,485.479155 L218.46187,484.143505 L218.079669,482.732531 C216.09988,475.323288 215.058863,469.750474 215,465.11351 L215,208.441823 C215,196.764304 217.268353,186.450725 222.715044,177.975247 C223.411067,176.892181 224.150308,175.855787 224.930716,174.867248 L225.403884,174.279877 L225.624,174.013 L225.243666,173.591946 C219.128836,166.71114 215.31751,157.737218 215.018941,147.880158 L215.005439,147.299322 L215,146.627882 L215,50.8162735 C215,24.6732486 235.977966,3.42868334 262.018773,3 L688.190578,3 Z M437.876225,922.660652 L438.11878,922.861619 C448.855567,931.739791 458.626454,937.008992 467.327393,938.699062 L467.951363,938.814449 L468.241895,938.859731 C469.461348,939.032269 472.302191,939.26792 474.306561,939.288086 L474.574468,939.289474 C477.352723,939.289474 480.261073,939.001778 481.805653,938.702058 C490.562749,937.002777 500.39838,931.682762 511.207407,922.714375 C500.536287,922.904614 489.492231,923 478.076956,923 C477.351436,923 476.646302,922.958264 475.961554,922.877139 C475.27923,922.958264 474.574096,923 473.848576,923 C461.417571,923 449.426787,922.886884 437.876225,922.660652 Z M390.4848,830.10923 L390.487124,868.103223 L394.013576,868.287912 C418.227939,869.519898 444.839606,870.135892 473.848576,870.135892 C474.574096,870.135892 475.27923,870.177627 475.963978,870.258753 C476.646302,870.177627 477.351436,870.135892 478.076956,870.135892 L482.137127,870.131838 C509.870975,870.076243 535.379319,869.448799 558.66284,868.249506 L558.66284,843.80404 C511.135234,843.342544 432.861035,836.621136 390.4848,830.10923 Z M389.184103,787.906304 L389.288793,788.900625 C390.050926,796.624796 390.448497,804.740287 390.484633,813.247292 L390.487343,814.526279 L390.486661,814.928126 C431.46383,821.427962 511.006459,828.330313 558.664309,828.803458 L558.661593,814.526279 C558.661593,810.227633 558.752997,806.028041 558.936203,801.927481 C510.217944,801.395619 429.555941,794.338329 389.184103,787.906304 Z M385.471097,764.953732 L385.646561,765.719111 C386.12948,767.887166 386.57605,770.093868 386.986369,772.339222 C424.760432,778.858942 510.278631,786.483228 560.063678,786.939316 C560.888981,779.264748 562.081025,771.983423 563.642772,765.09501 L561.682547,765.229022 C556.763116,765.549662 550.908946,765.819729 544.169446,766.047025 L540.359907,766.168243 L535.990941,766.291175 L531.291697,766.406798 C521.315153,766.635676 510.185427,766.790267 498.130441,766.884312 L495.317189,766.90505 L488.138,766.947 L487.815125,766.966081 L487.421571,766.985587 L487.027737,767 L475.519561,766.99047 L464.366255,767 C464.103561,767 463.8409,767 463.578426,766.98507 L463.184875,766.966081 L462.945,766.952 L455.167801,766.90494 L448.450754,766.849241 C433.902915,766.713047 420.891248,766.485586 409.819534,766.144245 L407.062477,766.055525 L402.697262,765.898288 L399.447286,765.76552 L396.814476,765.646167 C392.812511,765.455778 389.247788,765.243102 386.131911,765.005117 L385.471097,764.953732 Z M583.003776,665.79223 L579.692607,666.015032 L577.413144,666.161251 C552.932796,667.70127 523.137643,668.612462 488.000541,668.900273 L488,669 L481.956765,668.994561 L475.392057,668.975913 L475.392057,668.975913 L468.829262,668.994561 L462.786026,669 L462.785485,668.900273 L456.374175,668.840212 L451.572727,668.785012 C418.737303,668.376564 390.886698,667.385539 367.996422,665.807026 L367.996422,698.704 L370.688712,702.877122 L372.068822,704.99903 C375.989515,711.007947 379.335117,715.967171 382.090896,719.8584 L383.013929,721.152497 L383.672728,722.063705 L384.601937,723.328351 L384.601937,723.328351 L384.895652,723.722374 L385.728,724.822 L386.597222,724.905488 L387.932624,725.022146 L389.534237,725.148206 C392.305839,725.355151 395.585738,725.546225 399.329873,725.720096 L402.105261,725.842292 L405.037435,725.958432 L408.322878,726.075294 L411.913375,726.189408 C423.831197,726.546852 438.152397,726.774256 454.248075,726.897001 L463.855596,726.956868 L464.164876,726.961134 L464.473997,726.97018 L465.04,726.999 L475.519568,726.990485 L485.901,726.999 L486.309795,726.974428 L486.595637,726.962833 L487.168039,726.951911 L492.422531,726.923182 L499.602062,726.871048 C512.796051,726.760483 524.804852,726.574692 535.267459,726.296284 L539.19063,726.185319 L543.570155,726.044165 L548.137514,725.87306 L551.261349,725.738634 C555.296753,725.554391 558.809133,725.350176 561.748317,725.12678 L563.201098,725.010876 L564.263358,724.918145 L565.27,724.822 L565.450437,724.588076 L566.013822,723.843193 L566.610633,723.041374 C566.815072,722.764678 567.024979,722.478592 567.24025,722.183216 L567.902052,721.26932 L568.834225,719.96408 L569.483413,719.044165 C572.45264,714.817841 576.067685,709.421756 580.305276,702.886611 L581.257201,701.415619 L583.003776,698.704 L583.003776,665.79223 Z M696.002678,447.496783 L695.639714,447.538712 L695.756629,461.49819 L695.41214,461.501097 L695.295651,447.578303 C644.88632,453.36771 575.488091,456.480337 487.001937,456.940197 L487,457 L480.251787,456.995176 L475.274627,456.985321 L470.301809,456.995176 L463.553596,457 L463.55266,456.940202 L458.257391,456.90937 L450.556788,456.852447 C368.096573,456.164522 302.939541,453.070171 255,447.54866 L255,464.499 L255.056617,464.952698 L255.124314,465.396053 L255.211623,465.904652 C255.24402,466.084817 255.279726,466.275492 255.31878,466.476314 L255.461816,467.184798 L255.644583,468.031446 L255.852506,468.940541 C255.999498,469.567262 256.163237,470.235145 256.343678,470.943246 L256.574,471.836 L364.797774,639.390046 C366.057075,641.339722 366.960994,643.483543 367.480301,645.722383 L370.401313,645.925358 L373.415821,646.124199 C400.472078,647.862243 434.478089,648.815469 475.392489,648.97572 L481.421682,648.946069 L487.420782,648.904174 C526.076056,648.593025 558.12275,647.524694 583.525053,645.70667 C583.967113,643.80124 584.68912,641.965061 585.67179,640.259027 L585.94624,639.797018 L586.202226,639.390046 L694.407,471.863 L694.64708,470.927598 L694.910231,469.865628 C695.1188,469.007594 695.300542,468.217168 695.455338,467.496281 L695.54498,467.072108 L695.682058,466.391858 L695.790663,465.813977 C695.823491,465.632169 695.852955,465.461311 695.879091,465.301796 L695.915802,465.071082 L695.974348,464.661878 L696.002678,464.444 L696.002678,447.496783 Z M688.190578,201 L262.809422,201 C260.190743,201 257.67859,201.663298 255.408869,202.860186 C255.166426,204.293287 255.024898,205.99174 255.002994,207.9125 L254.9985,208.441823 L254.9985,427.413173 C306.833929,433.543604 380.298794,436.743881 475.274458,436.985237 L480.963695,436.967143 L486.488756,436.942484 C576.32402,436.48371 646.195926,433.281036 696.002129,427.360167 L696.002129,208.223 L695.990441,207.786355 C695.937821,206.057006 695.768547,204.520147 695.503217,203.21676 L695.405019,202.763945 C693.273639,201.673732 690.934962,201.051813 688.500269,201.003097 L688.190578,201 Z M675.43825,166.000687 L275.562218,166.000074 C275.57874,166.271835 275.589834,166.545061 275.595395,166.819646 L275.599572,167.232529 L275.599572,180.655711 C275.599572,180.77067 275.598602,180.885404 275.59667,180.999903 L675.273454,181.00036 C675.239132,180.443053 675.21607,179.847989 675.201957,179.19387 L675.18797,178.25519 L675.183915,177.289899 L675.191943,175.774564 L675.215981,174.035912 C675.226655,173.418789 675.239986,172.763916 675.255962,172.070763 L675.311815,169.875932 L675.410858,166.586708 L675.422462,166.293136 L675.43825,166.000687 Z M688.440439,43 L262.809422,43 C258.580422,43 255.13482,46.3651034 255,50.5680916 L255,146.000356 L696,145.999 L696,50.623 L695.994673,50.4358053 C695.803939,46.4608986 692.641968,43.2676095 688.693515,43.0122865 L688.440439,43 Z" id="Shape" fill="#000000" fill-rule="nonzero"></path>
    </g>
</svg>