<?xml version="1.0" encoding="UTF-8"?>
<svg width="960px" height="960px" viewBox="0 0 960 960" version="1.1" xmlns="http://www.w3.org/2000/svg" xmlns:xlink="http://www.w3.org/1999/xlink">
    <!-- Generator: Sketch 60.1 (88133) - https://sketch.com -->
    <title>GU10</title>
    <desc>Created with Sketch.</desc>
    <g id="GU10" stroke="none" stroke-width="1" fill="none" fill-rule="evenodd">
        <path d="M148.703018,5.01484397 C319.95778,2.471584 610.099335,2.37299929 790.551029,4.71295956 L801.460093,4.85926929 L812.297135,5.01484625 C823.110721,5.17551886 831.81504,13.8962918 832,24.6681671 L832,25.0126389 L832,72.869837 C832,82.2050659 825.54557,90.2808741 816.478134,92.3620878 L816.123544,92.4401305 L806.819,94.4 L792.829102,459.117742 C792.647161,463.860889 790.785034,468.374208 787.592223,471.859822 L787.279099,472.193904 L786.957738,472.521409 L771.454838,487.987305 C742.81998,516.604398 723.757321,535.967816 714.428424,545.905731 L713.132724,547.292755 L708.939082,551.821198 C701.526921,559.777474 690.446291,571.414669 675.672162,586.760059 L668.433498,594.26913 L659.317,603.701 L659.710245,622.452885 C660.730225,672.773833 661.267732,712.981774 661.322318,743.100407 L661.326069,745.953277 L661.326088,750.419932 C661.297935,787.770097 660.571381,806.767613 658.297973,814.349309 C654.095029,828.365902 639.747757,845.236055 614.123513,868.442282 L613.343568,869.147444 L611.617,870.699 L611.407475,870.907695 C610.390996,871.889646 609.327516,872.695138 608.216449,873.395773 L607.797568,873.653736 L607.451523,873.858071 C606.308578,874.520665 605.247477,875.001231 604.174922,875.403312 C603.014105,875.83848 601.933611,876.145234 600.770125,876.41574 C599.483302,876.714922 598.035963,876.976837 596.313994,877.237186 L595.78905,877.31528 C593.490243,877.651939 590.572484,878.009216 587.000804,878.39354 L587,899.029615 L592,899.029615 C597.522847,899.029615 602,903.506768 602,909.029615 L602,943.750419 C602,948.463324 598.709376,952.53653 594.101738,953.527059 C590.999731,954.193914 587.896785,954.765787 584.792052,955.24268 C579.977667,955.981992 575.156916,956.491986 570.331479,956.77264 C556.509788,957.576849 542.690779,956.49316 528.897552,953.526906 C524.290252,952.5361 521,948.463051 521,943.750419 L521,909.029615 C521,903.506768 525.477153,899.029615 531,899.029615 L536,899.029615 L536.001199,881.248758 L532.94348,881.334416 C519.062161,881.710721 503.566702,881.961752 487.560613,882.020254 L484.513221,882.029036 L478.867083,882.029036 L475.293052,882.023042 C457.457799,881.976695 440.180278,881.686809 424.999403,881.247619 L425,899.029615 L430,899.029615 C435.42924,899.029615 439.847932,903.356286 439.996158,908.74971 L440,909.029615 L440,943.750419 C440,948.463051 436.709748,952.5361 432.102448,953.526906 C418.309221,956.49316 404.490212,957.576849 390.668521,956.77264 C385.843084,956.491986 381.022333,955.981992 376.207948,955.24268 C373.103215,954.765787 370.000269,954.193914 366.898262,953.527059 C362.382777,952.556341 359.132152,948.625019 359.003933,944.032406 L359,943.750419 L359,909.029615 C359,903.600375 363.326671,899.181684 368.720095,899.033457 L369,899.029615 L375,899.029615 L375.000343,878.500172 L372.514144,878.231105 C370.333405,877.988477 368.4218,877.756687 366.769988,877.534017 L366.351303,877.477007 L364.686006,877.237186 C362.964037,876.976837 361.516698,876.714922 360.229875,876.41574 C359.066389,876.145234 357.985895,875.83848 356.825078,875.403312 C355.752523,875.001231 354.691422,874.520665 353.548477,873.858071 C352.312774,873.141702 351.133863,872.319911 350.010981,871.29974 L349.592525,870.907695 L349.382,870.699 L347.688743,869.176606 L346.150427,867.783688 C321.499742,845.387596 307.451658,828.923273 302.972122,815.21133 L302.836629,814.788123 L302.702027,814.349309 C300.565023,807.222515 299.79482,790.008702 299.686706,756.946251 L299.673912,750.419932 L299.673931,745.953277 C299.695922,718.673539 300.131601,682.751855 300.980611,638.169434 L301.388887,617.604019 L301.682,603.701 L286.749235,588.236027 C270.857439,571.738384 259.107197,559.398852 251.468803,551.185056 L250.858484,550.528113 L247.867276,547.292755 C238.78261,537.515189 218.246017,516.647488 186.463424,484.908658 L184.503501,482.951883 L174.042262,472.521409 C170.57072,469.063669 168.493069,464.456001 168.193738,459.576012 L168.170898,459.117742 L154.18,94.4 L144.876456,92.4401305 C135.861991,90.5407444 129.343636,82.7435902 129.010037,73.5993758 L129,73.2328996 L129,25.0126389 C129,14.0827493 137.774333,5.17714303 148.703018,5.01484397 Z M420,919.029 L379,919.029 L379,935.435 L379.244,935.474463 C382.505806,935.975356 385.768531,936.355152 389.032272,936.614067 L390.431081,936.71763 L391.830016,936.806395 C400.621388,937.317917 409.413362,936.95052 418.215736,935.701851 L419.47329,935.517475 L420,935.435 L420,919.029 Z M582,919.029 L541,919.029 L541,935.435 L541.52671,935.517475 C550.749306,936.913537 559.959976,937.342275 569.169984,936.806395 L570.568919,936.71763 C574.299244,936.461194 578.028222,936.046913 581.756,935.474463 L582,935.435 L582,919.029 Z M394.999504,880.045594 L395,898.029 L405,898.029 L405.000475,880.532979 L402.658537,880.428417 C400.734325,880.340326 398.879371,880.249891 397.099295,880.157455 L394.999504,880.045594 Z M567,898.029 L567.001776,879.990951 L564.175482,880.144035 C561.603163,880.278577 558.872819,880.408905 556.001447,880.533981 L556,898.029 L567,898.029 Z M225.615759,467.496014 L225.817246,467.694123 L238.676377,480.60263 C255.400775,497.434036 267.398318,509.699013 274.724392,517.45646 L276.653656,519.510796 L281.416292,524.65005 L284.709454,528.169039 C293.264113,537.275948 305.769,550.352956 322.196627,567.370105 L327.030567,572.374112 L336.224517,581.874878 C339.94482,585.715408 341.972367,590.885727 341.854454,596.231419 L341.447784,615.177754 C340.303522,670.077011 339.712775,713.332168 339.674991,744.913963 L339.673792,750.040475 C339.686324,766.307666 339.858514,779.162008 340.186694,788.554001 L340.275415,790.914451 L340.329994,792.209514 C340.441317,794.742783 340.565527,796.934248 340.700706,798.771996 L340.734728,799.224057 L340.826942,800.349239 L340.889977,801.039675 C340.921475,801.369434 340.952883,801.675784 340.983924,801.95774 L341.075671,802.729433 L341.141116,803.203122 L341.231929,803.415738 C341.97936,805.067164 344.219628,808.413085 347.952692,812.878474 L348.588692,813.632972 L349.218497,814.368409 L349.95318,815.212802 C355.148857,821.137104 362.167931,828.179663 370.975881,836.280205 L372.843,837.989 L373.984351,838.132577 C375.18203,838.279465 376.546941,838.435884 378.074952,838.601076 L380.488776,838.855347 L382.86783,839.094969 C396.823853,840.47349 432.409918,841.827262 471.47708,842.012232 L476.377293,842.029183 L481.865894,842.029183 L486.897948,842.019107 C526.608461,841.887352 563.052332,840.537304 577.677594,839.139137 L581.131935,838.79115 L583.489208,838.539672 C584.234096,838.458039 584.937942,838.378629 585.600227,838.301539 L587.020012,838.132042 L588.156,837.989 L590.025911,836.278556 C598.599415,828.393553 605.477912,821.51102 610.62956,815.686549 L611.0669,815.189901 L611.788634,814.360143 L612.417843,813.625281 C616.529495,808.786177 618.979597,805.157893 619.768102,803.415671 L619.858,803.206 L619.924329,802.729433 L619.985168,802.231527 C620.005679,802.054472 620.026393,801.866429 620.047229,801.667689 L620.110023,801.039675 L620.173058,800.349239 L620.275326,799.092631 C620.420261,797.185015 620.552951,794.877603 620.671097,792.184667 L620.724585,790.914451 L620.813306,788.554001 L620.907077,785.632582 C621.156511,777.162049 621.295619,766.251976 621.322229,752.9317 L621.326208,750.040475 L621.325009,744.913963 L621.312236,739.103174 C621.226839,712.05753 620.769609,677.163897 619.94024,634.438411 L619.552216,615.177754 L619.145546,596.231419 C619.027633,590.885727 621.05518,585.715408 624.775483,581.874878 L634.098051,572.241053 C655.267733,550.340119 670.471267,534.431467 679.657043,524.571341 L680.607164,523.549933 L684.212782,519.65399 C692.785219,510.458683 709.755421,493.161308 735.257116,467.619644 C682.681186,473.161024 602.378329,475.771052 491.76377,476.015952 L483.658927,476.029608 L476.68935,476.018407 C363.454373,475.785632 279.691564,473.108864 225.615759,467.496014 Z M792,44.735 L779.304637,44.5749035 L768.815129,44.4513337 C597.484774,42.4952258 342.467012,42.5568917 176.358394,44.6409575 L169,44.735 L169,56.645 L177.691755,58.4761699 C186.420243,60.3152991 192.844394,67.6994057 193.511148,76.5349808 L193.535885,76.9091673 L193.553514,77.2798534 L207.664852,445.205816 C259.102157,452.429441 351.779534,455.87607 483.658927,456.029615 L492.995254,456.013043 L500.453069,455.99134 C621.498101,455.576207 705.027338,452.185644 753.334201,445.269355 L767.446486,77.2798534 C767.788399,68.3662693 773.984312,60.7896335 782.581164,58.6434546 L782.945831,58.5560142 L783.308245,58.4761699 L792,56.644 L792,44.735 Z" id="Shape" fill="#000000" fill-rule="nonzero"></path>
    </g>
</svg>