<?xml version="1.0" encoding="UTF-8" standalone="no"?>
<!-- Created with Inkscape (http://www.inkscape.org/) -->

<svg
   xmlns:dc="http://purl.org/dc/elements/1.1/"
   xmlns:cc="http://creativecommons.org/ns#"
   xmlns:rdf="http://www.w3.org/1999/02/22-rdf-syntax-ns#"
   xmlns:svg="http://www.w3.org/2000/svg"
   xmlns="http://www.w3.org/2000/svg"
   xmlns:sodipodi="http://sodipodi.sourceforge.net/DTD/sodipodi-0.dtd"
   xmlns:inkscape="http://www.inkscape.org/namespaces/inkscape"
   width="1000"
   height="1000"
   viewBox="0 0 264.58333 264.58334"
   version="1.1"
   id="svg844"
   inkscape:version="0.92.4 (5da689c313, 2019-01-14)"
   sodipodi:docname="icon.svg">
  <defs
     id="defs838" />
  <sodipodi:namedview
     id="base"
     pagecolor="#ffffff"
     bordercolor="#666666"
     borderopacity="1.0"
     inkscape:pageopacity="0.0"
     inkscape:pageshadow="2"
     inkscape:zoom="0.35"
     inkscape:cx="-852.85714"
     inkscape:cy="560"
     inkscape:document-units="mm"
     inkscape:current-layer="layer1"
     showgrid="false"
     units="px"
     inkscape:window-width="1920"
     inkscape:window-height="1017"
     inkscape:window-x="-8"
     inkscape:window-y="-8"
     inkscape:window-maximized="1" />
  <metadata
     id="metadata841">
    <rdf:RDF>
      <cc:Work
         rdf:about="">
        <dc:format>image/svg+xml</dc:format>
        <dc:type
           rdf:resource="http://purl.org/dc/dcmitype/StillImage" />
        <dc:title />
      </cc:Work>
    </rdf:RDF>
  </metadata>
  <g
     inkscape:label="Ebene 1"
     inkscape:groupmode="layer"
     id="layer1"
     transform="translate(0,-32.41665)">
    <path
       style="fill:#000000;stroke-width:0.09331881"
       d="m 32.675747,189.91299 -2.749888,-2.80232 0.323592,-0.27427 c 1.024343,-0.86816 2.104479,-1.44597 3.309802,-1.77057 0.58394,-0.15726 1.010797,-0.20105 1.959694,-0.20105 0.948898,0 1.375755,0.0438 1.959695,0.20105 1.21726,0.3278 2.32959,0.9267 3.310893,1.78262 l 0.324694,0.2832 -2.797052,2.79824 c -1.538381,1.53901 -2.818323,2.79534 -2.844301,2.79182 -0.02601,-0.003 -1.284692,-1.26744 -2.797129,-2.80872 z m 61.027472,-38.57178 v -32.98819 h 8.180521 8.18053 l -0.0385,24.84613 -0.0385,24.84614 9.21524,0.0238 9.21523,0.0238 v 8.11827 8.11829 H 111.06052 93.703219 Z m 46.566071,0 v -32.98819 h 8.11874 8.11874 v 32.98819 32.9882 h -8.11874 -8.11874 z m 28.2756,0 v -32.98819 l 29.97867,9.1e-4 29.97866,9.1e-4 4.00331,9.19262 c 2.20181,5.05595 4.02721,9.16871 4.05646,9.13947 0.0292,-0.0292 1.84176,-4.15583 4.02781,-9.17021 l 3.97464,-9.11704 9.76437,-0.0239 9.76435,-0.0238 -1.00474,1.79683 c -0.55261,0.98824 -4.75202,8.50277 -9.33205,16.69894 l -8.3273,14.90214 0.14966,0.28943 c 0.16947,0.32771 17.48794,31.2802 17.84513,31.89375 l 0.23114,0.39703 -9.76832,-0.0238 -9.76829,-0.0238 -3.75191,-8.24456 c -2.06356,-4.5345 -3.78953,-8.24442 -3.83549,-8.24429 -0.046,8e-5 -2.06022,3.72062 -4.4761,8.26776 l -4.39253,8.26753 -9.08525,8e-5 c -8.32825,10e-5 -9.08041,-0.0125 -9.02734,-0.15072 0.0318,-0.083 4.11106,-7.40831 9.06495,-16.27855 l 9.00707,-16.1277 -4.70746,-8.42761 -4.70746,-8.4276 -16.71226,-0.0235 -16.71225,-0.0236 v 6.71921 6.71922 h 10.49836 10.49837 v 7.69839 7.6984 l -10.47503,0.0237 -10.47503,0.0236 -0.0237,10.2884 -0.0236,10.2884 h -8.11833 -8.11833 z m -146.3712,27.94273 -2.425624,-2.43255 0.513257,-0.46827 c 3.819498,-3.48481 8.233242,-5.47848 13.210713,-5.96731 1.356543,-0.13322 4.092764,-0.0577 5.406388,0.1491 2.457224,0.38693 4.551826,1.06813 6.784556,2.20643 1.871597,0.95421 4.078998,2.51202 5.22898,3.69023 l 0.442011,0.45285 -2.415506,2.41418 -2.415516,2.41417 -0.779404,-0.67584 c -2.058351,-1.78485 -4.44736,-2.96881 -7.203057,-3.56971 -0.820956,-0.179 -1.224644,-0.20657 -3.001541,-0.20495 -1.769468,0.001 -2.18054,0.0302 -2.976355,0.20735 -2.83004,0.62979 -5.21529,1.82926 -7.236686,3.63905 -0.35496,0.3178 -0.659153,0.57781 -0.675995,0.57781 -0.01687,0 -1.122141,-1.09464 -2.456221,-2.43254 z m -9.451637,-9.44228 C 9.6761036,166.83241 7.8650952,164.6152 6.2146098,161.87461 3.5960694,157.5266 2.006413,152.78017 1.4461804,147.63691 c -0.1834045,-1.68372 -0.2073772,-5.37555 -0.045079,-6.93404 0.3439496,-3.30174 1.1008902,-6.48144 2.2214873,-9.33188 1.7187226,-4.37187 4.1653545,-8.15644 7.4431803,-11.51347 5.796354,-5.93644 13.156431,-9.41837 21.541555,-10.19094 1.554672,-0.14323 5.790843,-0.0593 7.250892,0.14375 2.392657,0.33269 4.60967,0.84367 6.625631,1.52712 15.890602,5.38712 25.482713,21.29105 22.903003,37.97367 -0.67669,4.3761 -2.209253,8.62446 -4.471411,12.39502 -1.626206,2.71056 -3.15534,4.63057 -5.938669,7.45667 l -2.111577,2.14402 -0.828009,-0.78468 c -4.485078,-4.25033 -10.439078,-7.05213 -16.645558,-7.83298 -3.641307,-0.45812 -6.999417,-0.29654 -10.623838,0.51116 -1.374686,0.30634 -3.741166,1.08624 -5.193699,1.71164 -2.970073,1.27875 -6.215539,3.42024 -8.454463,5.57856 -0.441736,0.42585 -0.837808,0.77425 -0.880165,0.77425 -0.04232,0 -0.725209,-0.6404 -1.517463,-1.42312 z m 3.395948,-9.64733 c 3.804013,-2.32899 8.450297,-4.06783 12.915294,-4.83349 2.456727,-0.42129 3.166857,-0.47351 6.438996,-0.47351 3.25305,0 3.905028,0.0477 6.413592,0.47006 4.397344,0.74021 9.013527,2.46014 12.919735,4.81371 0.496581,0.29921 0.945371,0.55554 0.997295,0.56966 0.123225,0.0335 1.316985,-1.55679 2.048851,-2.72939 4.896966,-7.8459 5.33404,-17.60842 1.162238,-25.95963 -3.582328,-7.17118 -10.145576,-12.27455 -17.964406,-13.96856 -1.74555,-0.3782 -2.737047,-0.48926 -4.837657,-0.54191 -3.612254,-0.0905 -6.428196,0.35081 -9.664569,1.51474 -9.300064,3.34466 -15.970942,11.81965 -17.2224345,21.88016 -0.1816192,1.45995 -0.152455,5.09231 0.052027,6.48565 0.6934875,4.72457 2.4426095,9.02685 5.1305445,12.61947 0.316019,0.42238 0.580259,0.76882 0.587203,0.76988 0.0067,0.001 0.467406,-0.27653 1.023251,-0.61684 z"
       id="path1400"
       inkscape:connector-curvature="0" />
    <text
       xml:space="preserve"
       style="font-style:normal;font-weight:normal;font-size:11.39641571px;line-height:1.25;font-family:sans-serif;letter-spacing:0px;word-spacing:0px;fill:#000000;fill-opacity:1;stroke:none;stroke-width:0.28491038"
       x="17.942402"
       y="244.79958"
       id="text1404"><tspan
         sodipodi:role="line"
         id="tspan1402"
         x="17.942402"
         y="244.79958"
         style="font-style:normal;font-variant:normal;font-weight:bold;font-stretch:normal;font-size:37.98805618px;line-height:10.25;font-family:sans-serif;-inkscape-font-specification:'sans-serif Bold';stroke-width:0.28491038">All Devices</tspan></text>
  </g>
</svg>
