<?xml version="1.0" encoding="UTF-8"?>
<svg width="960px" height="960px" viewBox="0 0 960 960" version="1.1" xmlns="http://www.w3.org/2000/svg" xmlns:xlink="http://www.w3.org/1999/xlink">
    <!-- Generator: Sketch 60.1 (88133) - https://sketch.com -->
    <title>retro filament</title>
    <desc>Created with Sketch.</desc>
    <g id="retro-filament" stroke="none" stroke-width="1" fill="none" fill-rule="evenodd">
        <path d="M392.360345,137.189918 L367.558696,366.647514 C366.891612,372.819178 371.816375,377.952521 378.089333,378.458961 C384.257858,378.95697 389.986608,374.851887 390.639655,368.810082 L415.441304,139.352486 C416.108389,133.180822 411.183626,128.047479 404.910668,127.541039 C398.742143,127.04303 393.013392,131.148113 392.360345,137.189918 Z M404.151334,138.520237 C404.271066,138.539087 404.372155,138.569134 404.458,138.606 L379.733,367.349 L379.788271,367.315661 C379.613736,367.440729 379.316284,367.522227 378.974525,367.494636 L378.848667,367.479763 C378.728935,367.460913 378.627846,367.430866 378.541,367.393 L403.266,138.65 L403.211729,138.684339 C403.386265,138.559271 403.683716,138.477773 404.025476,138.505364 L404.151334,138.520237 Z" id="Combined-Shape-path" fill="#000000" fill-rule="nonzero"></path>
        <path d="M456.875157,133.5055 C450.506825,133.325386 444.76141,137.624928 444.49046,143.80199 L434.509395,371.347991 C434.234953,377.604652 439.699246,382.312767 446.124843,382.4945 C452.493175,382.674614 458.23859,378.375072 458.50954,372.19801 L468.490605,144.652009 C468.765047,138.395348 463.300755,133.687233 456.875157,133.5055 Z M456.729283,144.510698 C456.99721,144.534432 457.227774,144.595551 457.404879,144.674118 L457.477,144.71 L447.54,371.264 L447.459984,371.307829 C447.204536,371.430534 446.844749,371.510462 446.435829,371.500006 L446.270718,371.489302 C446.00279,371.465568 445.772226,371.404449 445.595122,371.325881 L445.522,371.289 L455.459,144.735 L455.540016,144.692171 C455.795464,144.569466 456.155251,144.489538 456.564171,144.499994 L456.729283,144.510698 Z" id="Combined-Shape-path" fill="#000000" fill-rule="nonzero"></path>
        <path d="M569.033115,137.174136 L543.56115,366.631732 C542.870545,372.852872 547.903524,377.960959 554.250419,378.459883 C560.475759,378.949253 566.293714,374.889958 566.966885,368.825864 L592.43885,139.368268 C593.129456,133.147128 588.096477,128.039041 581.749581,127.540117 C575.524241,127.050747 569.706286,131.110042 569.033115,137.174136 Z M581.023684,138.521462 C581.154441,138.540498 581.268766,138.570528 581.364249,138.606266 L581.452,138.642 L556.068,367.303 L556.114775,367.275743 C555.895949,367.428422 555.528589,367.526425 555.112462,367.493713 L554.976316,367.478538 C554.845559,367.459502 554.731234,367.429472 554.635751,367.393734 L554.547,367.357 L579.931,138.696 L579.885225,138.724257 C580.104051,138.571578 580.471411,138.473575 580.887539,138.506287 L581.023684,138.521462 Z" id="Combined-Shape-path" fill="#000000" fill-rule="nonzero" transform="translate(568.000000, 253.000000) scale(-1, 1) translate(-568.000000, -253.000000) "></path>
        <path d="M513.875157,133.5055 C507.506825,133.325386 501.76141,137.624928 501.49046,143.80199 L491.509395,371.347991 C491.234953,377.604652 496.699246,382.312767 503.124843,382.4945 C509.493175,382.674614 515.23859,378.375072 515.50954,372.19801 L525.490605,144.652009 C525.765047,138.395348 520.300755,133.687233 513.875157,133.5055 Z M513.729283,144.510698 C513.99721,144.534432 514.227774,144.595551 514.404879,144.674118 L514.477,144.71 L504.54,371.264 L504.459984,371.307829 C504.204536,371.430534 503.844749,371.510462 503.435829,371.500006 L503.270718,371.489302 C503.00279,371.465568 502.772226,371.404449 502.595122,371.325881 L502.522,371.289 L512.459,144.735 L512.540016,144.692171 C512.795464,144.569466 513.155251,144.489538 513.564171,144.499994 L513.729283,144.510698 Z" id="Combined-Shape-path" fill="#000000" fill-rule="nonzero" transform="translate(508.500000, 258.000000) scale(-1, 1) translate(-508.500000, -258.000000) "></path>
        <path d="M474.448189,2.01267132 C399.984283,2.94056932 345.521896,24.2892536 310.738016,62.5928815 C282.265618,93.9463742 269,134.59245 269,176.970563 C269,239.721757 325.576333,581.053902 353.195486,691.017595 C355.533682,700.326956 359.698571,702.980042 366.66229,705.537313 C368.280517,706.131571 369.935707,706.573455 371.852414,706.984397 C374.429326,707.536886 377.693881,708.065277 381.692771,708.598059 L383.604824,708.846079 C390.542716,709.722851 399.520449,710.619515 409.666526,711.46013 L412.46195,711.687942 C437.130984,713.665498 464.137576,715 481.622131,715 L483.217045,715 C499.421881,714.920118 523.197102,713.712184 545.495579,711.922395 L548.828144,711.649632 C560.103605,710.708694 570.054065,709.687464 577.494035,708.693024 L579.412515,708.429367 C583.033449,707.917262 586.021716,707.406747 588.421804,706.871638 C590.331572,706.445846 591.987402,705.986382 593.61505,705.365741 L594.269734,705.112137 C600.626951,702.60802 604.615788,699.735838 606.82805,690.923868 C634.457217,580.870269 691,239.705285 691,176.970563 C691,134.688241 677.79234,94.1229515 649.445209,62.7950092 C615.163342,24.9082697 561.676008,3.54635583 488.679208,2.06386647 L486.408708,2.02432684 C484.342508,2.00007995 476.211804,1.99069483 474.448189,2.01267132 Z M485.872352,42.0206962 C549.527891,42.9579032 593.127616,60.1723806 619.785098,89.6330009 C640.908608,112.977731 651,143.971884 651,176.970563 L650.983264,178.816651 C649.926012,239.899593 599.033973,548.676878 571.394188,667.250601 L570.933,669.21 L568.612413,669.500251 C562.773004,670.206511 555.474467,670.938305 547.326174,671.634167 L545.501702,671.788187 C522.545768,673.703862 497.354188,675 481.622131,675 L479.379285,674.992332 C463.540155,674.887098 439.827713,673.7073 417.78579,671.984272 L414.791101,671.745968 C405.31965,670.978613 396.909419,670.163552 390.432628,669.385057 L389.068,669.217 L388.629368,667.34987 C360.705579,547.596276 309,233.393104 309,176.970563 C309,143.89841 319.134445,112.846303 340.350083,89.4838742 C366.87016,60.2802557 410.086852,43.1516854 473.033088,42.038396 L475.239961,42.0025874 C477.097326,41.9936801 483.456304,42.0025874 485.57869,42.0179868 L485.872352,42.0206962 Z" id="Combined-Shape" fill="#000000" fill-rule="nonzero"></path>
        <g id="Creation/Fixture-E27" transform="translate(383.000000, 793.000000)" stroke="#000000">
            <path d="M26.9680851,29.6578947 C50.8030836,34.0690912 121.781287,40.9468115 164.086713,40.9468115" id="Path-2" stroke-width="15" stroke-linecap="round"></path>
            <path d="M30.2978138,60.717566 C57.303929,65.1193125 123.255631,71.3108466 163.395224,71.3108466" id="Path-2" stroke-width="15" stroke-linecap="round"></path>
            <path d="M19.3617021,9.17982456 C24.1295889,21.9470375 26.5135323,37.386692 26.5135323,55.4987883 C26.5135323,73.6108845 26.5135323,87.3861332 26.5135323,96.8245345 C51.1998007,131.057096 72.5514097,149.708492 90.5683594,152.77872 C91.3623165,152.914017 94.3293845,153.232456 96.8085106,153.232456 C99.8721133,153.232456 102.541154,152.87956 103.634344,152.673649 C121.527799,149.303273 142.684181,130.686901 167.103489,96.8245345 C167.103489,87.3861332 167.103489,73.6108845 167.103489,55.4987883 C167.103489,37.386692 169.487432,21.9470375 174.255319,9.17982456" id="Path-3" stroke-width="20" stroke-linecap="round" stroke-linejoin="round"></path>
            <path d="M169.414894,93.9166667 L161.747971,103.937221 C152.306622,123.571132 143.616316,133.494251 135.677054,133.706577 C124.208018,134.013304 112.124104,134.166667 99.4253116,134.166667 C98.8833903,134.166667 98.356692,134.136414 97.8452167,134.077608 C97.3354792,134.136375 96.8084499,134.166667 96.2661777,134.166667 C83.5673851,134.166667 71.4834709,134.013304 60.0144351,133.706577 C52.0751735,133.494251 43.3848678,123.571132 33.9435181,103.937221 L33.9435181,103.937221 L26.2765957,93.9166667 C47.051712,95.1910769 70.3815727,95.8282819 96.2661777,95.8282819 C96.8084499,95.8282819 97.3354792,95.8585739 97.8472658,95.9174549 C98.356692,95.8585347 98.8833903,95.8282819 99.4253116,95.8282819 C125.309917,95.8282819 148.639777,95.1910769 169.414894,93.9166667 Z" id="Combined-Shape" stroke-width="2" fill="#000000" fill-rule="evenodd"></path>
        </g>
        <path d="M353.013974,691.747508 L354.782097,739.021557 L354.81866,739.837883 C355.517822,753.235893 361.061437,765.91647 370.417753,775.309383 L395.318541,800.307571 C398.115098,803.115067 401.682624,805.028536 405.568442,805.805182 L406.373674,805.966122 L407.281337,806.143373 C424.293374,809.426892 445.170149,811.301114 470.062246,811.838002 L472.229,811.88 L472.353368,811.894895 C473.031119,811.964406 473.718534,812 474.413826,812 L477.298678,811.994692 L479.999,811.979 L479.849797,811.97877 C481.740087,811.992926 483.652207,812 485.586174,812 L485.934137,811.997023 C486.512956,811.987114 487.086115,811.952529 487.65256,811.894244 L487.774,811.88 L488.600765,811.865478 C514.971411,811.350249 536.884087,809.353042 554.475217,805.796406 C558.344426,805.014116 561.895608,803.104319 564.681459,800.307571 L589.582247,775.309383 C599.133153,765.72112 604.705818,752.71311 605.217903,739.021557 L606.986026,691.747508 C607.427657,679.939681 597.590696,670.324967 585.796041,671.036271 L583.259173,671.187931 C547.800626,673.289072 514.761454,674.461687 484.148339,674.707446 L479.982,674.734 L480.106358,674.735703 C447.581781,674.564893 412.278834,673.332464 374.203959,671.036271 C362.409304,670.324967 352.572343,679.939681 353.013974,691.747508 Z M566.193,712.189 L565.245851,737.52654 L565.22588,737.923366 C565.000502,741.48475 563.547676,744.766505 561.242821,747.080375 L540.742,767.661 L540.307202,767.734837 C525.705102,770.161579 507.330024,771.574687 485.281587,771.917606 L484.933813,771.925992 C484.586748,771.937337 484.241834,771.957534 483.899296,771.98637 L483.781,771.997 L481.946654,771.991062 C481.345051,771.988083 480.745941,771.98436 480.149325,771.979892 L479.849698,771.979893 L478.05338,771.991061 L476.218,771.997 L476.097622,771.986025 C475.642247,771.947794 475.182645,771.924825 474.719343,771.91762 L473.49746,771.897457 C452.383742,771.528873 434.680929,770.167735 420.476918,767.863539 L419.257,767.661 L398.757179,747.080375 L398.509882,746.824935 C396.395999,744.578537 395.049406,741.49212 394.789461,738.141151 L394.766,737.778 L394.751,737.453 L393.806,712.189 L394.734468,712.237252 C423.965824,713.716082 451.54349,714.544174 477.470473,714.720528 L480.015261,714.735422 L484.441797,714.70636 C509.818104,714.502657 536.746967,713.679704 565.244016,712.23833 L566.193,712.189 Z" id="Path" fill="#000000" fill-rule="nonzero"></path>
    </g>
</svg>