<?xml version="1.0" encoding="UTF-8"?>
<svg width="960px" height="960px" viewBox="0 0 960 960" version="1.1" xmlns="http://www.w3.org/2000/svg" xmlns:xlink="http://www.w3.org/1999/xlink">
    <!-- Generator: Sketch 60.1 (88133) - https://sketch.com -->
    <title>mini</title>
    <desc>Created with Sketch.</desc>
    <g id="mini" stroke="none" stroke-width="1" fill="none" fill-rule="evenodd">
        <path d="M459.353554,-2.97936561 L462.589788,-2.99979845 L465.201321,-2.98318106 C471.331383,-2.93262409 476.421277,-2.80866962 479.405568,-2.68614497 L480.717314,-2.62534822 L485.937866,-2.29396983 C644.453915,8.64071318 734.706077,92.491047 745.462482,255.323896 L745.764089,260.282406 L745.797305,261.044751 C745.964022,265.769675 746.025326,282.170959 745.992086,311.357629 L745.987109,315.314295 L745.909345,351.910334 L745.800043,438.642633 L745.788983,443.903083 C745.70888,447.174102 744.827381,450.375601 743.222053,453.226465 L742.975835,453.651429 L733.20809,469.982414 L713.386022,502.990184 L698.158011,528.274297 L675.271021,566.184187 L654.355,600.75 L651.829691,636.154507 C651.32892,643.264269 649.065951,650.221638 645.273115,656.996921 L644.901298,657.652024 L639.58698,666.777973 L608.682271,720.324538 C605.405025,726.01194 599.545603,729.729163 593.003934,730.270887 C591.539918,730.392125 590.067956,730.511026 588.588047,730.627593 C583.412888,747.445273 580.750292,767.423243 580.658403,790.556296 L580.65594,791.799391 L580.65594,854.943078 C580.65594,856.993588 580.025588,858.994534 578.850293,860.674794 C541.284795,914.380337 508.295638,944.307866 478.497716,950.094368 C475.482944,950.679811 470.919369,951.131579 466.475177,951.131579 L465.676505,951.131579 C462.138152,951.069978 457.675336,950.670221 455.496601,950.28745 C425.415577,945.002656 392.095413,914.994876 354.100061,860.674794 C352.993902,859.093372 352.370459,857.227884 352.300941,855.304363 L352.294414,854.943078 L352.294414,791.799391 C352.294414,768.420004 349.693008,748.231998 344.550464,731.239191 C340.301385,730.93494 336.117244,730.612168 331.996066,730.270887 C325.454397,729.729163 319.594975,726.01194 316.317729,720.324538 L284.928337,665.941807 L280.098702,657.652025 C276.207407,650.888535 273.83852,643.942484 273.225427,636.858469 L273.171584,636.17249 L270.644,600.75 L250.617587,567.654162 L235.34366,542.368055 L221.186994,518.891211 L221.186994,518.891211 L206.590722,494.63708 L190.8259,468.370047 L182.375908,454.241286 L181.788903,453.245897 C180.180286,450.396628 179.295321,447.196086 179.211575,443.925384 L179.205032,443.434288 L179.153532,396.997235 L178.995861,296.890881 C178.995861,278.083566 179.056956,266.609518 179.174987,261.975537 L179.212869,260.77415 L179.235911,260.282406 C188.477612,94.1924327 278.944913,8.75116453 439.062134,-2.29396983 L443.935478,-2.60590531 C446.163425,-2.7375329 451.292873,-2.89143364 457.853808,-2.96436578 L459.353554,-2.97936561 Z M424.125824,911.589557 L424.710884,912.082816 C437.025882,922.400236 448.244677,928.515103 458.255621,930.459344 L458.957305,930.589137 L459.355558,930.646401 L460.161493,930.741457 C460.555629,930.784709 461.01162,930.830925 461.487988,930.874122 L461.775922,930.89963 C463.468368,931.045965 465.128801,931.131579 466.475177,931.131579 C469.620617,931.131579 472.90887,930.80606 474.685109,930.46113 C484.841502,928.488845 496.235565,922.229065 508.751692,911.65149 C496.405338,911.88382 483.605279,912 470.353411,912 C469.550115,912 468.769388,911.953759 468.011231,911.863876 C467.255564,911.953751 466.474775,912 465.671412,912 L460.561207,911.99419 C448.003098,911.965508 435.85797,911.830631 424.125824,911.589557 Z M372.293661,808.080866 L372.293661,851.110112 L375.979848,851.306678 C403.13646,852.716128 433.033648,853.420853 465.671412,853.420853 C466.474775,853.420853 467.255564,853.467102 468.013781,853.557 C468.769388,853.467094 469.550115,853.420853 470.353411,853.420853 L474.600308,853.416847 C505.83208,853.357699 534.51721,852.643697 560.657349,851.274838 L560.657349,823.440983 C507.737872,823.018081 419.199898,815.396646 372.293661,808.080866 Z M370.739716,761.29004 L370.775504,761.588955 C371.747344,770.711791 372.251462,780.340271 372.291785,790.474647 L372.294414,791.799391 L372.292415,792.894055 C417.724465,800.19608 507.6085,808.007853 560.658512,808.440591 L560.65594,791.799391 C560.65594,786.755092 560.769811,781.835049 560.99803,777.039231 C506.685742,776.541081 415.236714,768.514447 370.739716,761.29004 Z M567.394138,732.103007 L565.745784,732.203913 C537.001102,733.921524 505.554376,734.847348 471.396964,734.986465 L466.998629,735 L462.5,735 C427.449669,735 395.177795,734.191773 365.675415,732.571858 C366.756655,736.806571 367.703806,741.184327 368.518513,745.704506 C410.20225,753.012944 506.744574,761.634987 562.130145,762.049168 C563.244042,751.377361 564.996983,741.395632 567.394138,732.103007 Z M613.683183,608.767854 L610.553473,608.978 L605.370847,609.306389 C572.066479,611.341791 529.62123,612.533828 478.001055,612.887811 L478,613 L470.321224,612.994576 C467.177178,612.990099 464.063523,612.982852 460.98025,612.972832 L458.982376,612.979161 L451.72269,612.994576 L444.043914,613 L444.042845,612.887811 L437.561259,612.838557 L429.596919,612.764411 C381.743787,612.272187 342.332321,611.008151 311.332462,608.967613 L313.071457,633.344099 C313.135929,634.259446 313.612512,635.687225 314.743307,637.658377 L318.649059,644.355486 L345.71,691.218 L347.233967,691.329082 L350.773593,691.577741 L354.344428,691.817695 C384.829152,693.820306 418.695639,694.879419 455.932054,694.991218 L460.328356,695 L466.910273,694.995627 C505.730443,694.91838 540.913603,693.817695 572.446482,691.698699 L574.227464,691.577668 L577.766033,691.329082 L579.289,691.218 L604.901451,646.854998 L610.265162,637.643601 C611.330676,635.78339 611.812555,634.407626 611.916039,633.47709 L611.929817,633.326116 L613.683183,608.767854 Z M222.677155,443.697599 L228.612964,453.608916 L251.314823,491.384409 L272.078409,525.82201 L272.078409,525.82201 L277.87361,535.418288 L307.356556,584.152382 C308.239825,585.610421 308.92991,587.170134 309.414316,588.792241 L311.671253,588.945455 C348.793528,591.424801 398.605405,592.769847 461.049678,592.972922 L468.834387,592.94126 L474.356902,592.911012 C533.505216,592.551403 580.6207,591.105188 615.653124,588.580196 C616.130712,587.034143 616.798735,585.546768 617.643444,584.152382 L640.510388,546.366419 C647.348579,535.054485 653.871338,524.252573 660.080279,513.959124 L675.127396,488.988837 L694.814441,456.231095 L702.046061,444.154793 L696.825585,444.389181 L691.348847,444.627564 C630.024968,447.254167 563.107277,448.697112 490.593023,448.957132 L481.227251,448.984071 L475.268629,448.994366 L467.999207,448.998202 L468,449 L466.480175,449 L466.479207,448.998202 L459.211546,448.994366 L453.246856,448.984058 L444.346339,448.958763 C363.507041,448.674549 289.618582,446.921167 222.677155,443.697599 Z M466.120096,37.0269061 L462.5,37 L459.295876,37.0228186 C454.083147,37.072363 449.869953,37.1753554 447.576906,37.2647848 L446.547389,37.3104944 L442.009572,37.597285 C302.685735,47.1135723 228.746003,115.812239 219.436457,258.168298 L219.165812,262.673486 C219.031526,265.716789 218.975804,282.771076 219.010963,312.579633 L219.015941,316.450815 L219.090511,351.802728 L219.18021,423.503332 L226.471862,423.856078 L233.819215,424.19713 C302.654449,427.325712 378.767845,428.926255 462.155333,428.999202 L467.050207,428.999202 L475.269573,428.994348 L481.209202,428.984063 L490.29026,428.958085 C568.738779,428.679555 640.583622,427.012911 705.82127,423.959092 L705.99904,294.116452 L705.948064,271.107536 C705.922346,266.936308 705.887558,264.206044 705.845222,262.960249 L705.825868,262.504679 L705.560691,258.124726 C696.237957,115.783697 622.284959,47.0985846 482.94778,37.594374 L478.438305,37.3097522 C476.745765,37.2222146 472.723328,37.1064611 467.462519,37.041943 L466.120096,37.0269061 Z" id="Shape" fill="#000000" fill-rule="nonzero"></path>
    </g>
</svg>