<?xml version="1.0" encoding="UTF-8"?>
<svg width="960px" height="960px" viewBox="0 0 960 960" version="1.1" xmlns="http://www.w3.org/2000/svg" xmlns:xlink="http://www.w3.org/1999/xlink">
    <!-- Generator: Sketch 60.1 (88133) - https://sketch.com -->
    <title>A60</title>
    <desc>Created with Sketch.</desc>
    <g id="A60" stroke="none" stroke-width="1" fill="none" fill-rule="evenodd">
        <path d="M704.109208,3 C731.085452,3 753.105247,24.4330918 753.979982,51.2724311 L754,52.0873827 L754,155.9375 C754,167.247374 749.543997,177.52861 742.283796,185.106094 L741.905776,185.495613 L741.672,185.728 L742.203131,186.327504 C742.999323,187.245535 743.759832,188.205687 744.483068,189.206871 L745.018482,189.965435 L745.324293,190.414995 C751.012382,198.891977 753.691981,209.294973 753.984801,220.858472 L754,221.582695 L754,428.459375 C754,433.322151 752.879225,439.350416 750.671825,447.66735 L750.314263,448.999733 L749.956964,450.304933 C749.465808,452.083172 748.731221,453.78404 747.774746,455.359476 L747.481169,455.828295 L632.545,633.85 L632.545286,686.345366 C632.545286,689.834567 631.632561,693.257352 629.905386,696.276486 L629.664823,696.685652 L629.414219,697.089625 L627.08943,700.739596 L624.709178,704.452843 C610.283325,726.885144 601.954945,738.424038 595.688638,743.396485 L595.287181,743.70822 L594.88318,744.007803 C594.283373,744.441808 593.700799,744.830737 593.126138,745.181261 C593.3655,746.772653 593.222724,748.445695 592.635402,750.065892 C586.781639,766.21418 583.763102,785.972366 583.66411,809.335231 L583.661593,810.526279 L583.661593,867.509607 C583.661593,869.561316 583.030504,871.563372 581.853932,873.244202 C547.794611,921.900733 517.842819,949.052472 490.615514,954.33583 C487.833264,954.875715 483.650517,955.289474 479.574468,955.289474 C476.234365,955.289474 471.667347,954.894888 469.493168,954.513202 C442.000593,949.686772 411.74583,922.46003 377.295004,873.244202 C376.187642,871.662244 375.563476,869.79574 375.493877,867.871102 L375.487343,867.509607 L375.487343,810.526279 C375.487343,786.643172 372.466513,766.48788 366.513535,750.065892 C366.288164,749.444181 366.128251,748.814689 366.030264,748.184961 C362.222375,747.407399 359.427144,746.40307 356.11682,744.007803 L355.714031,743.709107 C349.088481,738.67803 340.143376,726.14436 323.940421,700.786378 L321.582549,697.084548 C319.624882,694.008887 318.546798,690.459278 318.460356,686.820467 L318.454714,686.345366 L318.454,633.85 L203.518831,455.828295 C202.629389,454.450654 201.913506,452.970029 201.386378,451.420153 L201.21768,450.901008 L201.06309,450.377012 L200.688313,449.026295 C198.310219,440.365564 197.063206,434.005328 197,428.853319 L197,222.40625 C197,210.114283 199.378161,199.296816 205.052755,190.462929 C206.024086,188.950815 207.076378,187.52667 208.204628,186.19345 L208.6928,185.627645 L208.945,185.343 L208.510875,184.890358 C201.647933,177.627009 197.338737,167.923982 197.019114,157.219412 L197.005645,156.634542 L197,155.9375 L197,52.9109375 C197,25.6245235 218.889407,3.44749938 246.065668,3 L704.109208,3 Z M442.876225,918.660652 L443.11878,918.861619 C453.855567,927.739791 463.626454,933.008992 472.327393,934.699062 L472.951363,934.814449 L473.241895,934.859731 C474.461348,935.032269 477.302191,935.26792 479.306561,935.288086 L479.574468,935.289474 C482.352723,935.289474 485.261073,935.001778 486.805653,934.702058 C495.562749,933.002777 505.39838,927.682762 516.207407,918.714375 C505.536287,918.904614 494.492231,919 483.076956,919 C482.351436,919 481.646302,918.958264 480.961554,918.877139 C480.27923,918.958264 479.574096,919 478.848576,919 C466.417571,919 454.426787,918.886884 442.876225,918.660652 Z M395.4848,826.10923 L395.487124,864.103223 L399.013576,864.287912 C423.227939,865.519898 449.839606,866.135892 478.848576,866.135892 C479.574096,866.135892 480.27923,866.177627 480.963978,866.258753 C481.646302,866.177627 482.351436,866.135892 483.076956,866.135892 L487.137127,866.131838 C514.870975,866.076243 540.379319,865.448799 563.66284,864.249506 L563.66284,839.80404 C516.135234,839.342544 437.861035,832.621136 395.4848,826.10923 Z M394.184103,783.906304 L394.288793,784.900625 C395.050926,792.624796 395.448497,800.740287 395.484633,809.247292 L395.487343,810.526279 L395.486661,810.928126 C436.46383,817.427962 516.006459,824.330313 563.664309,824.803458 L563.661593,810.526279 C563.661593,806.227633 563.752997,802.028041 563.936203,797.927481 C515.217944,797.395619 434.555941,790.338329 394.184103,783.906304 Z M571.630068,749.842436 L570.833075,749.905011 L569.567631,749.996006 C563.989587,750.385249 557.185576,750.708886 549.229314,750.977102 L545.258374,751.103611 L541.781144,751.203368 C530.017564,751.524814 516.53841,751.736242 501.720796,751.860217 L497.612502,751.892123 L489.035,751.943 L488.650194,751.966052 L488.256472,751.985575 L487.86247,752 L475.519754,751.989753 L463.53169,752 C463.268883,752 463.006111,752 462.743525,751.985057 L462.349806,751.966052 L462.038,751.948 L453.656873,751.897821 L446.908565,751.842305 C430.94729,751.695118 416.696994,751.446315 404.619593,751.070284 L401.782065,750.978226 L399.08595,750.883385 L394.78858,750.715173 L391.400919,750.565028 L388.586573,750.42612 C388.281673,750.410287 387.979379,750.39432 387.679698,750.378217 C389.402853,756.061931 390.836868,762.048899 391.986369,768.339222 C429.760432,774.858942 515.278631,782.483228 565.063678,782.939316 C566.305506,771.391446 568.377672,760.733916 571.290269,750.965603 L571.630068,749.842436 Z M592.54651,641.074127 L589.694391,641.301376 L586.74909,641.52447 C560.637984,643.452163 527.734886,644.574806 488.000541,644.900273 L488,645 L481.956765,644.994561 L475.392057,644.975913 L475.392057,644.975913 L468.829262,644.994561 L462.786026,645 L462.785485,644.900273 L455.431281,644.830078 L449.442818,644.757608 C412.853007,644.271084 382.534788,643.051387 358.453598,641.091582 L358.453598,680.51 L360.514868,683.714325 L362.485574,686.755842 C366.343588,692.686375 369.700606,697.701161 372.545845,701.7868 L373.588799,703.275334 L374.509848,704.573338 L375.267859,705.628268 L376.337657,707.093303 C376.680611,707.55798 377.009797,707.998871 377.324851,708.415622 L377.635182,708.824313 L378.221,709.585 L379.411445,709.704535 L380.727447,709.823418 L382.703262,709.983071 L384.475527,710.111139 C387.529626,710.321324 391.08259,710.51512 395.093102,710.691393 L398.155876,710.819099 L401.388346,710.940475 L404.092966,711.033012 C416.611441,711.443922 431.811312,711.710008 449.002414,711.859481 L451.475795,711.880076 L462.975062,711.953593 C463.250148,711.95526 463.525111,711.962603 463.799777,711.975609 L464.211531,711.999363 L475.519761,711.989768 L486.731,711.999363 L486.904163,711.986497 L487.189823,711.970808 L487.47578,711.959203 L488.048414,711.948273 L496.164686,711.901273 L504.968308,711.829574 C517.449068,711.711049 528.887784,711.526677 539.008988,711.263076 L543.221783,711.14649 L546.994384,711.029321 L550.302281,710.91502 L553.57647,710.789324 C558.8903,710.574063 563.483065,710.330027 567.275052,710.058284 L568.886128,709.937363 L570.409942,709.81143 L571.874371,709.677007 L572.778,709.585 L573.27753,708.938586 L573.839859,708.197247 L574.432887,707.403414 C574.838363,706.856801 575.263976,706.27551 575.709069,705.660175 L576.653674,704.344126 L577.64942,702.937011 L578.692287,701.44442 C581.417457,697.520991 584.602583,692.762392 588.235003,687.185334 L589.679187,684.96127 L592.54651,680.51 L592.54651,641.074127 Z M704.715084,448.324158 L701.472855,448.641881 C648.14632,453.78282 576.682412,456.5458 487.002761,456.948468 L487,457 L479.771517,456.995179 L475.322626,456.987336 L470.877035,456.995179 L463.648551,457 L463.646789,456.948472 L455.481056,456.904975 C368.021906,456.364977 298.323224,453.522832 246.309546,448.361547 L355.257082,617.107052 C356.033964,618.310351 356.6755,619.587561 357.174822,620.915386 L359.831943,621.138003 L362.544201,621.354408 C391.160119,623.582191 428.796085,624.793214 475.392489,624.97572 L479.837744,624.955042 L485.619989,624.918086 C530.538581,624.585536 566.628375,623.241133 593.833348,620.896443 C594.211562,619.891426 594.671992,618.915585 595.211039,617.978941 L595.487097,617.513932 L595.742918,617.107052 L704.715084,448.324158 Z M703.571607,211.000303 L246.820747,211.000303 C244.613867,211.918797 242.207079,212.45334 239.683786,212.52053 L239.118243,212.527175 C238.847175,212.638879 238.579222,212.756247 238.314538,212.879122 C238.148432,213.29099 237.978415,213.813483 237.817521,214.446153 L237.737896,214.771667 L237.671639,215.062969 C237.26646,216.905997 237.032543,219.19068 236.998806,221.834297 L236.998806,427.270963 C292.842273,433.513435 372.321984,436.760848 475.322794,436.987273 L481.487717,436.970018 L487.474329,436.946045 C584.810896,436.497397 660.353419,433.251496 714.002507,427.231454 L714.002507,222.142 L713.993188,221.799331 C713.880185,217.575043 713.163287,214.535879 712.291383,212.999065 L712.200651,212.845456 L712.040367,212.593869 L711.878765,212.526589 L711.389792,212.521771 L710.933997,212.506357 C708.081718,212.374345 705.65194,211.842643 703.571607,211.000303 Z M691.822,179 L259.141,179 L259.141,190.999 L691.646738,191.000582 L691.633827,190.262827 L691.629385,189.828806 L691.625954,188.908475 L691.633775,187.369786 L691.649882,186.072129 C691.670369,184.712458 691.703982,183.166167 691.750609,181.428015 L691.822,179 Z M704.387517,43 L246.890792,43 C241.52381,43 237.150508,47.2852224 237,52.6333774 L237,155.9375 C237,157.131379 237.961723,158.09375 239.141328,158.09375 C241.221615,158.09375 243.227721,158.411359 245.113799,159.00073 L705.89122,159.00073 C707.558796,158.479288 709.319545,158.171025 711.141424,158.106483 L711.917,158.092 L712.051621,158.085576 C713.034427,157.999302 713.833043,157.234612 713.976889,156.255117 L713.994719,156.089959 L714,155.9375 L714,52.675 L713.994275,52.4667316 C713.769756,47.3789159 709.714218,43.2956374 704.663955,43.0117026 L704.387517,43 Z" id="Shape" fill="#000000" fill-rule="nonzero"></path>
    </g>
</svg>