<?xml version="1.0" encoding="UTF-8"?>
<svg width="960px" height="960px" viewBox="0 0 960 960" version="1.1" xmlns="http://www.w3.org/2000/svg" xmlns:xlink="http://www.w3.org/1999/xlink">
    <!-- Generator: Sketch 60.1 (88133) - https://sketch.com -->
    <title>BR30</title>
    <desc>Created with Sketch.</desc>
    <g id="BR30" stroke="none" stroke-width="1" fill="none" fill-rule="evenodd">
        <path d="M229.973855,2.00007897 L245.597546,2.0163243 L704.661794,2.03205117 L728.971691,2.00007897 C732.243902,2.00007897 735.184776,2.00007897 737.971385,2.01793982 L744.055634,2.05068104 L752.359451,2.13099799 L755.641518,2.17497907 C773.305452,2.433368 787.629616,3.00381685 799.10947,4.02186462 L800.648786,4.16268254 L802.296473,4.3235923 C809.072348,5.00835384 814.732595,5.87413632 819.39016,7.00413443 C822.814146,7.8348469 825.826312,8.83151415 828.576246,10.1575232 C833.430355,12.4981592 837.462028,15.7263312 840.230812,20.9908163 C845.245893,30.5263452 847.259393,42.5170677 846.97415,57.2286057 L846.961469,57.775079 L846.962184,169.914499 C846.962184,170.181784 846.956826,170.449008 846.946117,170.716012 L846.926041,171.11633 L846.880891,171.715922 C844.521466,197.804557 838.195279,220.48456 827.742876,239.634978 C809.999956,272.142751 771.550585,328.617768 750.717482,349.935496 L749.749181,350.911329 C746.748247,353.875818 732.286161,367.803978 725.495869,374.495744 L725.034816,374.950641 L722.776377,377.194328 C710.002286,389.934419 698.445483,402.223563 687.507708,414.973979 L685.636538,417.167213 C655.274407,452.952323 634.750231,486.879145 627.359289,517.430735 C626.45225,521.180119 625.752059,524.855294 625.26104,528.453768 C620.719872,561.734079 617.642427,601.655127 615.788776,644.831589 L615.623627,648.765595 L615.467429,652.659585 L615.276071,657.694736 C614.845126,669.400313 614.522416,680.795391 614.294101,691.696192 L614.20199,696.337166 L614.105927,701.849607 C614.011441,707.718577 613.952778,712.922994 613.922807,717.100111 L613.909735,719.184354 L613.898195,723.100498 C613.898195,731.077558 610.828755,738.027712 605.520449,746.253309 C604.094207,748.463372 602.51538,750.715148 600.797151,753.018739 C599.088431,755.309581 597.324287,757.544853 595.454375,759.820079 L594.287005,761.229256 L591.70497,764.289645 L591.132744,764.974179 C588.482371,768.12497 584.940702,770.362053 581.009547,771.416556 C580.914587,771.874717 580.786621,772.331422 580.624011,772.784111 C575.44129,787.212266 572.762132,804.892602 572.669721,825.818461 L572.667246,826.942594 L572.667246,878.278925 C572.667246,880.316036 572.045096,882.304561 570.884047,883.978415 C540.333375,928.022494 513.425305,952.63858 488.751499,957.470314 C486.323832,957.945711 482.765685,958.312562 479.231432,958.350877 L478.673759,958.350877 C475.62482,958.350877 471.480502,957.989531 469.473116,957.633897 C444.550555,953.218549 417.367502,928.531922 386.463471,883.978415 C385.370719,882.403023 384.755331,880.548892 384.686713,878.637857 L384.680272,878.278925 L384.680272,826.942594 C384.680272,805.525079 381.998776,787.469911 376.723507,772.784111 C376.44468,772.007885 376.26771,771.219851 376.185705,770.434629 C373.405403,769.224596 370.911355,767.385929 368.915968,765.031869 L366.487886,762.15234 L364.545625,759.820079 C362.675713,757.544853 360.911569,755.309581 359.202849,753.018739 C357.48462,750.715148 355.905793,748.463372 354.479551,746.253309 C349.291888,738.214658 346.242482,731.394133 346.106558,723.658534 L346.101812,723.11733 L346.085269,718.398987 C346.067481,715.419979 346.035042,711.959466 345.985306,708.108154 L345.884485,701.254255 L345.745163,693.618465 L345.641401,688.723479 C345.402991,678.053179 345.075617,666.971769 344.647255,655.637742 L344.442335,650.389292 L344.363195,648.447592 C342.524405,603.837499 339.401959,562.626928 334.73896,528.453768 C334.247941,524.855294 333.54775,521.180119 332.640711,517.430735 C325.323679,487.184661 305.134763,453.630522 275.271372,418.240207 L274.363462,417.167213 L272.492292,414.973979 C261.554517,402.223563 249.997714,389.934419 237.223623,377.194328 L234.689252,374.678261 C228.32517,368.40077 214.769069,355.338142 210.807481,351.458438 L210.064108,350.726321 L209.282518,349.935496 C188.449415,328.617768 150.000044,272.142751 132.257124,239.634978 C121.804721,220.48456 115.478534,197.804557 113.119109,171.715922 C113.082997,171.316624 113.058904,170.916376 113.046855,170.51572 L113.037816,169.914499 L113.037,57.746 L113.02585,57.2286057 C112.751274,43.0671787 114.606739,31.4268916 119.219153,22.0708198 L119.493656,21.5230955 L119.769188,20.9908163 C122.537972,15.7263312 126.569645,12.4981592 131.423754,10.1575232 C134.173688,8.83151415 137.185854,7.8348469 140.60984,7.00413443 C145.640011,5.78373647 151.839708,4.87151962 159.351214,4.16268254 L160.89053,4.02186462 L163.031174,3.83987854 C174.136882,2.9351357 187.776014,2.41754827 204.358482,2.17497907 L207.640549,2.13099799 L215.944366,2.05068104 L219.491861,2.02798667 C222.184836,2.01322774 224.976393,2.00007897 228.040604,2.00007897 L229.973855,2.00007897 Z M447.548866,924.392375 L447.663095,924.484897 C456.776008,931.952224 465.058997,936.394641 472.416329,937.838655 L472.96204,937.940563 L473.217208,937.980306 C474.252268,938.125848 476.709605,938.331186 478.432813,938.349552 L478.673759,938.350877 C481.078483,938.350877 483.600801,938.099082 484.90801,937.843098 C492.290879,936.397352 500.600686,931.936857 509.74165,924.437378 C500.723552,924.590266 491.409344,924.666667 481.800501,924.666667 C481.152824,924.666667 480.523346,924.629068 479.912065,924.555984 C479.302895,924.629068 478.673417,924.666667 478.025741,924.666667 C467.514187,924.666667 457.355229,924.575236 447.548866,924.392375 Z M404.678125,841.899647 L404.68,875.132 L404.777463,875.273073 L408.292619,875.454309 C429.496896,876.512332 452.74127,877.041344 478.025741,877.041344 C478.673417,877.041344 479.302895,877.078943 479.914176,877.152027 C480.523346,877.078943 481.152824,877.041344 481.800501,877.041344 L485.732273,877.037044 L490.100192,877.022001 C512.560112,876.91636 533.351351,876.378019 552.473909,875.406977 L552.667093,875.132 L552.667093,854.050593 L550.109417,854.014165 C507.84027,853.31507 441.736569,847.550024 404.678125,841.899647 Z M403.616067,803.901063 L403.706378,804.822518 C404.322443,811.474779 404.645303,818.442465 404.677582,825.725785 L404.677134,826.720601 C441.164904,832.476276 510.418378,838.535527 552.668469,839.049706 L552.667246,826.942594 C552.667246,823.325794 552.738182,819.786087 552.880371,816.323449 L550.261868,816.282775 C506.982657,815.510427 439.085343,809.48404 403.616067,803.901063 Z M397.897312,773.246083 L398.208512,774.321879 C399.482356,778.796677 400.566642,783.472195 401.462704,788.34854 C435.277383,794.137545 509.826673,800.837309 553.997288,801.335976 C555.091452,791.365369 556.869813,782.127949 559.340121,773.622597 L554.002514,774.069473 C523.84423,776.56272 501.319238,777.871868 486.250623,777.996145 L485.727998,778 L483.492786,777.999461 L481.44544,777.988006 C464.611632,777.836767 436.853198,776.255349 397.897312,773.246083 Z M486.606434,187.995498 L480,188 L473.181152,187.995498 C402.166683,187.903224 296.1102,186.392629 154.987447,183.459978 C157.390526,197.005099 161.261675,208.811383 166.542598,218.925746 L166.973869,219.742123 L167.367766,220.471397 C183.476042,249.984249 220.020226,303.658141 237.749316,321.834884 L238.662442,322.753059 C241.478423,325.522274 255.059666,338.604597 262.174039,345.604792 L263.133662,346.550939 L265.554967,348.95695 C278.97786,362.347302 291.194242,375.340297 302.852144,388.930181 C337.990661,429.891957 362.188731,469.45633 371.519228,508.02537 C372.739932,513.071336 373.693916,518.078625 374.371697,523.045798 C379.230255,558.652123 382.439884,600.995517 384.326312,646.728672 L384.510332,651.308305 C385.000138,663.831839 385.368486,676.065525 385.631041,687.812743 L385.737133,692.816907 L385.857179,699.288424 C385.949294,704.691817 386.012471,709.601051 386.051562,713.853382 L386.069124,715.924053 L386.097,721.133 L386.300528,721.535596 C386.647421,722.204797 387.10785,723.005189 387.669482,723.904084 L387.884813,724.245723 L388.088681,724.563995 C388.988371,725.958129 390.05759,727.483083 391.265968,729.103128 C391.836289,729.867746 392.424092,730.636032 393.031234,731.412082 L393.644892,732.190872 L394.157,732.832 L402.945676,733.516153 C439.041345,736.285614 464.975774,737.771634 480.509396,737.979373 L482.51889,737.999498 L484.502333,737.999498 C498.667702,737.96995 521.648735,736.637231 553.231837,733.996081 L557.354798,733.648026 L565.774,732.917 L566.355108,732.190872 C566.768603,731.669751 567.173227,731.152688 567.56953,730.638468 L568.157815,729.86912 L568.734032,729.103128 C569.94241,727.483083 571.011629,725.958129 571.911319,724.563995 C572.666564,723.393689 573.270805,722.362774 573.700547,721.533522 L573.824211,721.290859 L573.901,721.133 L573.932795,715.643268 C573.950041,713.503163 573.974081,711.138241 574.005685,708.587491 L574.098872,701.974717 L574.209001,695.58821 L574.302843,690.859717 C574.552051,678.960622 574.911567,666.48743 575.398937,653.662519 L575.498121,651.092914 C577.354158,603.741267 580.610611,559.818354 585.628303,523.045798 C586.306084,518.078625 587.260068,513.071336 588.480772,508.02537 C597.811269,469.45633 622.009339,429.891957 657.147856,388.930181 C668.805758,375.340297 681.02214,362.347302 694.445033,348.95695 L697.473972,345.95137 C698.292621,345.144724 699.206559,344.248412 700.18692,343.2899 L721.332202,322.758326 L722.250684,321.834884 C739.979774,303.658141 776.523958,249.984249 792.632234,220.471397 C798.33718,210.019054 802.486734,197.698545 805.015121,183.459978 L784.093774,183.889004 C657.390883,186.455087 560.398211,187.820051 493.095668,187.983356 L486.606434,187.995498 Z M255.536955,42.0320656 L230.0648,42.0006728 L224.279621,42.0085171 C222.14558,42.014547 220.125223,42.0239696 218.143804,42.0364939 L214.77128,42.0609483 L207.182224,42.1399442 L204.013173,42.1848093 C189.058657,42.4154384 176.774627,42.8808546 167.040041,43.6469136 L165.698261,43.7557633 L163.824085,43.9194426 L162.400595,44.0539343 C159.374131,44.3501345 156.725441,44.6769888 154.49963,45.0236583 L153.613,45.166 L153.533054,45.709829 C153.156021,48.4033205 152.955349,51.7831173 153.008103,55.820095 L153.019255,56.4990047 L153.036256,57.2992731 L153.036469,163.417079 L169.337771,163.755207 C304.904558,166.523749 406.962579,167.937926 475.489168,167.998001 L484.298418,167.998001 L492.76977,167.984085 C558.976044,167.826546 654.14469,166.499376 778.257514,164.002364 L798.791691,163.584013 L806.961469,163.412079 L806.963744,57.2992731 L806.982657,56.3997474 C807.063142,52.1148775 806.862745,48.5465102 806.469473,45.7279061 L806.405787,45.2890989 L806.386,45.166 L805.527383,45.0278698 L804.44321,44.8651034 C802.95593,44.650167 801.302735,44.4437999 799.494988,44.2487327 L798.110377,44.1045938 L796.781755,43.9755249 L795.558784,43.8639673 L794.301739,43.7557633 C783.699667,42.86925 769.9278,42.3611781 752.817776,42.1399442 L749.701883,42.1032002 L745.22872,42.0609483 L740.146558,42.0265252 C738.711007,42.0188622 737.244694,42.0128242 735.720379,42.0085171 L729.9352,42.0006728 L714.48195,42.0162453 L255.536955,42.0320656 Z" id="Shape" fill="#000000" fill-rule="nonzero"></path>
    </g>
</svg>