<?xml version="1.0" encoding="UTF-8"?>
<svg width="960px" height="960px" viewBox="0 0 960 960" version="1.1" xmlns="http://www.w3.org/2000/svg" xmlns:xlink="http://www.w3.org/1999/xlink">
    <!-- Generator: Sketch 60.1 (88133) - https://sketch.com -->
    <title>candle</title>
    <desc>Created with Sketch.</desc>
    <g id="candle" stroke="none" stroke-width="1" fill="none" fill-rule="evenodd">
        <path d="M315.809485,478.032817 C363.415981,481.899179 416.788067,483.887892 475.91765,483.995393 L481,484 L481,504 L475.874723,503.995348 C417.947535,503.889901 365.435985,501.991802 318.332656,498.297786 L314.190515,497.967183 L315.809485,478.032817 Z" id="Path-7" fill="#000000" fill-rule="nonzero"></path>
        <path d="M480.009454,2 C422.469598,2 375.3129,49.8838126 343.331788,134.848032 C312.276206,217.353396 295.396313,334.324937 295.061821,475.747169 L295.053087,480.935806 L295.001838,488.631683 C294.991539,491.780814 295.010876,493.807021 295.085398,495.197874 L302.155848,627.157374 L302.268762,628.253881 C303.579746,640.01905 308.679182,651.046621 316.807414,659.67004 L386.331,733.43 L386.445258,735.679372 C386.461661,735.98887 386.478508,736.301028 386.495798,736.615851 C387.134394,748.243852 391.491436,759.359208 398.924827,768.324571 L404.582403,775.148134 C410.80719,782.655807 420.053288,787 429.805951,787 L531.19482,787 C540.947482,787 550.19358,782.655807 556.418367,775.148134 L562.075943,768.324571 C569.509334,759.359208 573.866376,748.243852 574.504972,736.615852 L574.603392,734.758859 L574.669,733.43 L644.193356,659.67004 C652.321588,651.046621 657.421024,640.01905 658.732009,628.253881 L658.844922,627.157374 L665.915372,495.197874 C665.989189,493.820192 666.008325,491.798907 665.998235,488.643773 L665.944019,480.040165 C665.944019,336.828962 648.835707,218.256562 617.158614,134.796606 C584.936252,49.9000242 537.545384,2 480.009454,2 Z M480.009454,42 C517.264413,42 552.777208,77.8943359 579.761666,148.990558 C609.205591,226.566766 625.613869,339.022536 625.93909,475.885347 L625.946859,480.907929 L626.000726,489.004597 C626.000726,491.17181 625.992324,492.69084 625.972666,493.057726 L618.956,623.998 L618.950772,624.052526 C618.560517,627.115621 617.209335,629.980842 615.085703,632.233848 L546.761,704.72 L546.502029,704.930415 C546.392137,705.020848 546.282955,705.112174 546.174418,705.204369 C544.957044,706.238442 543.930109,707.312164 542.970648,708.466631 C541.766512,709.915501 540.686516,711.479023 539.668829,713.150212 C538.858964,714.480125 538.092457,715.880027 537.461508,717.177805 C537.081343,717.959755 536.738749,718.725884 536.430917,719.511286 C536.186443,720.135036 535.963574,720.768838 535.755878,721.474438 C535.291681,723.051448 534.978077,724.59193 534.910994,726.684449 L534.861792,728.097697 C534.789547,730.027006 534.690723,732.136027 534.565158,734.422405 L534.537617,734.82197 C534.295026,737.745978 533.160973,740.529291 531.283432,742.79378 L527.796,746.999 L433.204,746.999 L429.717338,742.79378 C427.754454,740.426359 426.604184,737.491877 426.435612,734.422404 L426.34645,732.740912 C426.234245,730.54336 426.148741,728.523754 426.089776,726.684449 C426.022693,724.59193 425.709089,723.051448 425.244892,721.474438 C425.037196,720.768838 424.814327,720.135036 424.569853,719.511286 C424.262021,718.725884 423.919427,717.959755 423.539262,717.177805 C422.908314,715.880027 422.141806,714.480125 421.331942,713.150212 C420.314254,711.479023 419.234258,709.915501 418.030122,708.466631 C417.070661,707.312164 416.043726,706.238442 414.826352,705.204369 L414.498741,704.930415 L414.242,704.722 L345.915067,632.233848 L345.642467,631.93654 C343.675758,629.731318 342.423285,626.982443 342.049998,624.052526 L342.045,624.013 L335.028104,493.057726 C335.009526,492.710991 335.000435,491.41812 335.000435,489.548624 L335.056751,480.040165 C335.056751,341.123771 351.308577,227.202947 380.767612,148.939132 C407.537187,77.8204031 442.813658,42 480.009454,42 Z" id="Path" fill="#000000" fill-rule="nonzero"></path>
        <path d="M480.809485,478.032817 C528.415981,481.899179 581.788067,483.887892 640.91765,483.995393 L646,484 L646,504 L640.874723,503.995348 C582.947535,503.889901 530.435985,501.991802 483.332656,498.297786 L479.190515,497.967183 L480.809485,478.032817 Z" id="Path-7" fill="#000000" fill-rule="nonzero" transform="translate(562.595258, 491.016409) scale(-1, 1) translate(-562.595258, -491.016409) "></path>
        <path d="M308.185192,623.966749 L309.814808,604.033251 L312.267413,604.229658 C351.924825,607.340567 411.536813,608.934255 491.007242,608.998008 L496,609 L496,629 L488.485384,628.995483 C408.95075,628.899108 349.295909,627.260535 309.424727,624.067052 L308.185192,623.966749 Z" id="Path-4" fill="#000000" fill-rule="nonzero"></path>
        <path d="M463.185192,623.966749 L464.814808,604.033251 L467.267413,604.229658 C506.924825,607.340567 566.536813,608.934255 646.007242,608.998008 L651,609 L651,629 L643.485384,628.995483 C563.95075,628.899108 504.295909,627.260535 464.424727,624.067052 L463.185192,623.966749 Z" id="Path-4" fill="#000000" fill-rule="nonzero" transform="translate(557.092596, 616.516625) scale(-1, 1) translate(-557.092596, -616.516625) "></path>
        <g id="Creation/Fixture-E27" transform="translate(409.000000, 772.000000)" stroke="#000000">
            <path d="M19.9148936,34.0789474 C37.5161233,39.1477135 89.9307962,47.050684 121.171727,47.050684" id="Path-2" stroke-width="15" stroke-linecap="round"></path>
            <path d="M22.3737702,69.7686317 C42.3167476,74.8265392 91.0195432,81.9410349 120.661088,81.9410349" id="Path-2" stroke-width="15" stroke-linecap="round"></path>
            <path d="M14.2978723,10.5482456 C17.8187733,25.2186455 19.5792238,42.9598635 19.5792238,63.7718996 C19.5792238,84.5839356 19.5792238,100.412638 19.5792238,111.258005 C37.8090836,150.593558 53.5764256,172.025286 66.88125,175.553188 C67.4675568,175.708653 69.6586224,176.074561 71.4893617,176.074561 C73.7517144,176.074561 75.7226985,175.669059 76.5299771,175.432453 C89.7436055,171.559661 105.36678,150.168179 123.3995,111.258005 C123.3995,100.412638 123.3995,84.5839356 123.3995,63.7718996 C123.3995,42.9598635 125.15995,25.2186455 128.680851,10.5482456" id="Path-3" stroke-width="20" stroke-linecap="round" stroke-linejoin="round"></path>
            <path d="M125.106383,107.916667 L119.444656,119.430969 C112.472582,141.991674 106.055126,153.394015 100.192286,153.637992 C91.7228444,153.990442 82.7993385,154.166667 73.4217686,154.166667 C73.0217528,154.166667 72.6329689,154.131934 72.255417,154.064419 C71.8783515,154.131873 71.4892364,154.166667 71.0888697,154.166667 C61.7112998,154.166667 52.7877939,153.990442 44.3183521,153.637992 C38.4555127,153.394015 32.0380562,141.991674 25.0659826,119.430969 L25.0659826,119.430969 L19.4042553,107.916667 C34.7458796,109.381051 51.9740844,110.113243 71.0888697,110.113243 C71.4892364,110.113243 71.8783515,110.148037 72.2562148,110.215668 C72.6329689,110.147976 73.0217528,110.113243 73.4217686,110.113243 C92.5365539,110.113243 109.764759,109.381051 125.106383,107.916667 Z" id="Combined-Shape" stroke-width="2" fill="#000000" fill-rule="evenodd"></path>
        </g>
        <path d="M471.696849,728 C444.12458,728 422.879718,726.668369 407.796224,723.945629 L407.179822,723.832952 L410.820178,704.167048 L411.92979,704.367181 C425.040879,706.67127 443.947119,707.896925 468.507889,707.993772 L471.696849,708 L488.303151,708 C514.416801,708 534.38972,706.770478 548.062512,704.368533 L549.179822,704.167048 L552.820178,723.832952 C537.905456,726.593816 516.831643,727.962756 489.432696,727.99925 L471.696849,728 Z" id="Path" fill="#000000" fill-rule="nonzero"></path>
    </g>
</svg>