<?xml version="1.0" encoding="UTF-8"?>
<svg width="960px" height="960px" viewBox="0 0 960 960" version="1.1" xmlns="http://www.w3.org/2000/svg" xmlns:xlink="http://www.w3.org/1999/xlink">
    <!-- Generator: Sketch 60.1 (88133) - https://sketch.com -->
    <title>downlight</title>
    <desc>Created with Sketch.</desc>
    <g id="downlight" stroke="none" stroke-width="1" fill="none" fill-rule="evenodd">
        <path d="M470,2 C557.237636,2 639.709569,11.2349828 704.014347,27.8486277 C736.757646,36.3081162 764.446998,46.5862483 785.980372,58.5787557 C806.556536,70.0381672 822.298233,83.3680355 831.956694,99.4834651 L832.361174,100.166059 L832.69,100.734 L832.79769,100.857772 C838.549578,107.561613 842.120137,116.191779 842.408796,125.647819 L842.422359,126.227783 L842.427746,126.889267 L842.432,229.162 L843.465205,229.552725 C861.777683,236.506143 877.486968,244.11485 890.41316,252.435108 L891.290177,253.003502 L892.087991,253.527442 C903.591018,261.129889 913.078004,269.482356 920.359978,278.911588 C929.377599,290.588263 934.896769,303.811701 935.853892,318.132695 L935.892822,318.798589 L935.892822,318.798589 L935.920643,319.465039 L935.977714,321.174045 C936,321.470619 936,321.767289 936,322.064 L936,345.884848 C936,346.92632 935.960145,347.958677 935.881863,348.980455 L935.815969,349.744782 L935.75,350.378 L935.720301,350.722571 C934.322411,365.930583 927.787092,379.781158 917.408712,391.874336 L916.895207,392.467664 L916.391872,393.039738 C907.247411,403.349709 895.279066,412.388121 880.664462,420.576562 C855.3316,434.770355 820.91812,446.94539 778.890765,457.029617 C696.362241,476.83187 586.658324,488 470,488 C353.672584,488 244.255429,476.895344 161.798819,457.194726 C119.836203,447.168974 85.423113,435.064022 60.0250819,420.961172 C45.4137495,412.847889 33.42008,403.901266 24.2117701,393.713892 C13.0261975,381.339025 5.91326637,367.056142 4.33056084,351.242171 L4.25,350.378 L4.19044821,349.81316 C4.11171245,349.005408 4.05700256,348.190616 4.02478159,347.369508 L4,346.546322 L4,322.064 L4,321.618971 L4,321.618971 L4.07935738,319.465039 C4.09419984,319.020584 4.11645316,318.576407 4.14610806,318.132695 C5.10322054,303.81185 10.6222894,290.58853 19.6397495,278.911941 C26.9216081,269.482759 36.4084455,261.130331 47.9112886,253.527918 C60.8594698,244.970258 76.71648,237.156772 95.2909029,230.027589 L96.5332215,229.553323 L97.566,229.162 L97.5722544,126.888675 C97.572799,117.138667 101.061692,108.203618 106.858858,101.263461 L107.202521,100.857527 L107.308,100.735 L107.638826,100.166059 C117.001824,84.1834039 132.307388,70.9266053 152.355021,59.5159344 L153.229642,59.0209789 L154.019628,58.5787557 C175.553002,46.5862483 203.242354,36.3081162 235.985653,27.8486277 C300.290431,11.2349828 382.762364,2 470,2 Z M470,252 C356.224181,252 249.666802,262.8972 171.122634,281.887926 C96.2894229,299.981401 54,324.155798 54,345 C54,365.844202 96.2894229,390.018599 171.122634,408.112074 C249.666802,427.1028 356.224181,438 470,438 C583.775819,438 690.333198,427.1028 768.877366,408.112074 C843.710577,390.018599 886,365.844202 886,345 C886,324.155798 843.710577,299.981401 768.877366,281.887926 C690.333198,262.8972 583.775819,252 470,252 Z M470,270.5 C541.069571,270.5 607.715727,278.002761 657.126507,291.15392 C708.041662,304.705482 737.5,323.242795 737.5,345 C737.5,366.757205 708.041662,385.294518 657.126507,398.84608 C607.715727,411.997239 541.069571,419.5 470,419.5 C398.930429,419.5 332.284273,411.997239 282.873493,398.84608 C231.958338,385.294518 202.5,366.757205 202.5,345 C202.5,323.242795 231.958338,304.705482 282.873493,291.15392 C332.284273,278.002761 398.930429,270.5 470,270.5 Z M470.5,284.5 C405.139119,284.5 343.918663,291.383904 298.768552,303.387001 C255.124724,314.989655 230.5,330.467201 230.5,345 C230.5,359.532799 255.124724,375.010345 298.768552,386.612999 C343.918663,398.616096 405.139119,405.5 470.5,405.5 C535.860881,405.5 597.081337,398.616096 642.231448,386.612999 C685.875276,375.010345 710.5,359.532799 710.5,345 C710.5,330.467201 685.875276,314.989655 642.231448,303.387001 C597.081337,291.383904 535.860881,284.5 470.5,284.5 Z M470.163894,295 C548.289498,295 617.3957,305.486417 659.435972,321.558686 C650.982309,348.142892 569.246266,369 469.663894,369 C370.51261,369 289.053477,348.32308 280,321.904159 C321.949085,305.636182 391.482383,295 470.163894,295 Z M470,221 C354.684657,221 246.591079,231.786602 166.364409,250.633428 L163.896701,251.217824 C149.783186,254.587154 136.713848,258.174232 124.787336,261.943429 C76.9110172,277.974646 47.5464357,297.472119 44.3007042,318.589725 C62.6980903,296.068756 105.107997,277.272919 166.422389,262.448077 C246.628022,243.055635 354.734655,232 470,232 C585.265345,232 693.371978,243.055635 773.577611,262.448077 C834.892003,277.272919 877.30191,296.068756 895.69935,318.589725 C892.453729,297.473325 863.092359,277.976894 815.222094,261.945806 C803.259149,258.165496 790.145493,254.567322 775.97833,251.187999 C695.56087,232.005852 586.47385,221 470,221 Z M470,42 C299.127617,42 158.36625,78.5004769 139.678358,125.464677 L139.149519,126.89101 L137.572254,126.890909 L137.564341,237.314084 C145.288342,235.192031 153.367766,233.142134 161.790529,231.16346 C243.632821,211.937093 353.234488,201 470,201 C587.943867,201 698.55992,212.160117 780.618783,231.733791 C788.174545,233.536083 795.449204,235.396311 802.433697,237.314084 L802.433697,126.890909 L800.850481,126.89101 C784.474342,79.2415844 642.598367,42 470,42 Z" id="Shape" fill="#000000" fill-rule="nonzero"></path>
    </g>
</svg>